<svg xmlns="http://www.w3.org/2000/svg" xmlns:xlink="http://www.w3.org/1999/xlink" id="Layer_1" x="0px" y="0px" viewBox="0 0 100.2 100.2" style="enable-background:new 0 0 100.2 100.2;" xml:space="preserve">
<style type="text/css">
	.st0{fill:#2FB24B;}
</style>
<title>Servicio Al Cliente</title>
<g>
	<path d="M64.5,52.8c0.7,0.3,1.4,0.8,1.9,1.4l3,3.5V66L68,65.1l-1,1.8c-0.5,1-1.4,1.8-2.5,2.3V52.8 M31.4,52.8v16.4   c-1.1-0.4-1.9-1.2-2.5-2.2L28,65.2L26.6,66v-8.5l3-3.4C30,53.5,30.7,53.1,31.4,52.8 M48,23.4c-12,0-21.7,9.7-21.8,21.7l0,0v0.3   c0,0.4-0.3,0.8-0.7,0.8l0,0h-0.8v20c0,0.4,0.1,0.9,0.4,1.2c0.3,0.4,0.7,0.6,1.2,0.6h0.3c0.2,0,0.5-0.1,0.7-0.2   c1.2,2.2,3.5,3.6,6,3.6v-21c-2,0-3.8,0.9-5.1,2.4v-6c0.6-0.1,1.1-0.7,1.2-1.3v-0.3c0-10.3,8.4-18.7,18.7-18.7s18.7,8.4,18.7,18.7   v0.2l0,0c0,0.7,0.5,1.3,1.2,1.5v6c-1.3-1.5-3.2-2.4-5.2-2.5v21c2.5,0,4.8-1.4,6-3.7c0.2,0.1,0.5,0.2,0.7,0.2h0.3   c0.5,0,0.9-0.2,1.2-0.6c0.3-0.4,0.4-0.8,0.4-1.2v-20h-0.8c-0.4,0-0.8-0.3-0.8-0.8l0,0V45C69.7,33.1,60,23.4,48,23.4z"></path>
	<path d="M48,21c-13.6,0-24.7,11-24.7,24.7l0,0V46c0,0.4,0.3,0.7,0.8,0.7h1.5c0.4,0,0.8-0.3,0.8-0.7l0,0v-0.3   c0-12,9.7-21.7,21.7-21.7s21.7,9.7,21.7,21.7V46c0,0.4,0.3,0.8,0.7,0.8l0,0H72c0.4,0,0.8-0.3,0.8-0.7l0,0v-0.3   C72.7,32.1,61.6,21,48,21z"></path>
	<path class="st0" d="M24.4,64.8v-7.7c-1,0-1.9,0.8-1.9,1.9v3.9C22.6,64,23.4,64.8,24.4,64.8z"></path>
	<path class="st0" d="M35.5,50.5h-1.9v21h1.9c1,0,1.9-0.8,1.9-1.9l0,0V52.3C37.4,51.3,36.6,50.5,35.5,50.5L35.5,50.5z"></path>
	<path class="st0" d="M60.3,50.5c-1,0-1.9,0.8-1.9,1.9v17.2c0,1,0.8,1.9,1.9,1.9h1.9v-21L60.3,50.5z"></path>
	<path class="st0" d="M71.5,57.1v7.7c1,0,1.9-0.8,1.9-1.9V59C73.4,58,72.6,57.1,71.5,57.1L71.5,57.1z"></path>
	<path class="st0" d="M72.5,61.9c2.4,0,4.3,1.9,4.3,4.3l0,0c0,6-4.9,10.8-10.8,10.8H55.5v1.9h10.4c7,0,12.7-5.7,12.7-12.7l0,0   c0-3.4-2.7-6.2-6.1-6.2l0,0V61.9z"></path>
	<rect x="47.8" y="77.9" width="10.5" height="1.9"></rect>
	<rect x="47.8" y="76.1" width="10.5" height="1.9"></rect>
</g>
</svg>