<svg width="488" height="91" viewBox="0 0 488 91" fill="none" xmlns="http://www.w3.org/2000/svg">
<path d="M248.956 0.0703125C256.295 0.309153 265.819 0.257488 273.094 0.0864267C262.192 12.9612 248.181 26.7268 236.647 39.5758C238.536 42.2128 241.329 45.421 243.417 48.0579L257.257 65.6708C263.257 73.4235 269.299 81.1438 275.389 88.8287C267.023 88.8223 258.657 88.8674 250.295 88.9642C248.659 87.0987 247.032 85.146 245.518 83.1837C237.958 73.3815 229.715 63.7892 222.425 53.8063C218.592 58.1086 214.491 62.227 210.598 66.5132L210.65 88.8835L189.164 88.8997L189.206 0.0799653C196.338 0.173565 203.471 0.189714 210.603 0.131618C210.683 13.6616 210.693 27.1916 210.633 40.7216C223.521 27.5434 235.94 13.1355 248.956 0.0703125Z" fill="#0F0F0F"/>
<path d="M405.651 0.0546875C412.732 0.135377 419.81 0.161194 426.891 0.132146C426.643 11.5255 426.856 22.9673 426.833 34.4219C426.801 50.2209 423.761 72.3912 446.318 72.4331C468.785 72.4751 466.045 52.0478 466.032 36.0196L466.019 0.125685C473.058 0.228967 480.097 0.228967 487.133 0.125685C487.266 5.52865 487.13 11.5901 487.114 17.0414C487.13 28.5284 487.175 40.0734 487.108 51.5507C487.043 62.1178 483.951 73.0754 476.04 80.5021C467.161 88.8324 455.955 90.7367 444.207 90.372C432.93 90.0266 422.702 86.7991 414.878 78.275C410.873 73.8274 408.068 68.4277 406.739 62.5922C404.841 54.3684 405.48 39.5344 405.473 30.5101C405.467 20.8629 405.257 9.60186 405.651 0.0546875Z" fill="#0F0F0F"/>
<path d="M316.791 0.0859375L395.385 0.224741L395.359 17.176C385.861 17.2664 376.172 17.0727 366.734 17.2889L366.837 59.9672L366.912 88.8153L345.387 88.8831C345.177 79.7426 345.336 70.0114 345.326 60.8354C345.255 46.2855 345.278 31.7323 345.391 17.1824C335.847 17.1049 326.209 17.3858 316.672 17.2147C316.798 11.5535 316.691 5.78584 316.791 0.0859375Z" fill="#0F0F0F"/>
<path d="M111.299 0.122787C118.399 0.161518 125.498 0.151846 132.597 0.09375L132.676 71.7105C146.339 72.3431 163.792 71.7557 177.834 71.8396C177.774 77.5169 177.779 83.1942 177.849 88.8683C155.649 88.7327 133.449 88.7586 111.25 88.9458L111.299 0.122787Z" fill="#0F0F0F"/>
<path d="M283.88 0.09375C290.906 0.248674 298.291 0.126035 305.343 0.103442L305.369 88.8392C298.204 88.7682 291.036 88.7779 283.867 88.8651L283.88 0.09375Z" fill="#0F0F0F"/>
<path d="M96.7282 75.7789C98.7615 80.1068 100.76 84.4688 102.657 88.7847L47.3936 88.8086C46.751 86.7269 44.831 82.6469 43.9102 80.5264C43.2172 78.9311 42.5295 77.3339 41.8477 75.7344L96.7282 75.7789Z" fill="#00BB31"/>
<path d="M39.8555 0C46.9389 0.300165 54.7589 0.090209 61.9453 0.170898C72.7656 22.0634 81.9963 45.1828 92.6445 67.2012C93.214 68.3791 93.7834 69.5641 94.3525 70.7539H71.7842C64.5791 70.6925 51.7954 70.5913 41.9697 70.5684L49.2783 54.2578C54.5915 54.2691 60.4351 54.2743 65.1152 54.2646L61.2236 45.0244C57.8561 36.8684 54.5973 28.587 50.7988 20.6279C50.1265 22.6289 49.0364 25.0595 48.207 27.041C37.1978 52.1267 32.4209 63.555 21.9971 88.8359L0 88.8711C5.63044 74.928 13.5993 58.4802 19.8613 44.5371C26.1934 30.436 33.1507 13.7106 39.8555 0Z" fill="#0F0F0F"/>
<path d="M41.7646 70.5684H41.7588L41.7656 70.542C41.7654 70.5509 41.7648 70.5597 41.7646 70.5684Z" fill="#0F0F0F"/>
</svg>
