<svg width="172" height="172" viewBox="0 0 172 172" fill="none" xmlns="http://www.w3.org/2000/svg">
<path d="M86.0273 35.4336L99.3557 55.4051C101.52 58.6463 104.698 63.0732 106.636 66.3132C104.837 69.3542 102.467 72.3071 100.619 75.3484C99.9681 76.4178 99.0602 77.7438 98.2867 78.7001C94.3089 72.5165 90.0609 66.4218 86.0805 60.2366L43.7707 123.414L38.1359 131.888C37.2794 133.173 35.8823 135.402 34.9478 136.543C29.677 136.504 23.4005 136.644 18.2383 136.428C19.1226 135.355 20.4103 133.333 21.2316 132.115C23.0832 129.376 24.9211 126.627 26.7452 123.868L42.7195 99.9666L68.7536 61.2699C74.4242 52.8763 80.5891 43.9444 86.0273 35.4336Z" fill="#0F0F0F"/>
<path d="M142.715 35.6094L142.833 35.6311C143.159 36.0739 143.227 69.033 143.198 72.4957C139.45 70.1122 135.718 67.7026 132.004 65.2671C131.455 66.4784 128.551 70.5932 127.695 71.8943L116.632 88.5369L96.8979 118.227C92.901 124.265 88.7963 130.641 84.6703 136.559C83.854 136.52 82.9745 136.515 82.1533 136.522C77.5034 136.564 72.755 136.335 68.1133 136.498C68.381 135.98 68.8135 135.332 69.1338 134.822C73.2373 128.93 77.2296 122.595 81.241 116.592L110.221 73.1269C113.543 68.1347 116.998 62.6129 120.38 57.7346C117.17 55.7265 112.402 53.0163 109.483 50.8565C112.354 49.2561 117.928 46.9155 121.118 45.4611L142.715 35.6094Z" fill="#00BB31"/>
<path d="M123.283 90.7383L141.329 117.858L150.24 131.105C151.362 132.81 152.735 134.772 153.76 136.489C148.456 136.518 142.207 136.667 136.945 136.437C136.033 136.485 135.113 136.509 134.2 136.5C129.606 136.457 124.965 136.61 120.376 136.482C118.749 134.291 116.653 130.917 115.124 128.577C112.336 124.276 109.51 120 106.648 115.748C109.556 111.794 112.185 107.347 115.02 103.301C116.641 100.729 118.295 98.1795 119.984 95.6524C120.962 94.1681 122.231 92.1373 123.283 90.7383Z" fill="#00BB31"/>
<path d="M115.02 103.301C117.134 106.219 119.53 110.177 121.582 113.258L136.945 136.437C136.033 136.485 135.113 136.509 134.201 136.5C129.606 136.457 124.965 136.61 120.376 136.482C118.749 134.291 116.653 130.917 115.124 128.577C112.336 124.276 109.51 120 106.648 115.748C109.556 111.794 112.185 107.347 115.02 103.301Z" fill="#0F0F0F"/>
<path d="M80.9879 79.707C81.5919 80.0323 88.5817 90.8654 89.4225 92.1915C87.9959 94.6176 85.4522 98.1326 83.7818 100.64L72.673 117.332L64.2647 129.907C62.8847 131.968 61.2279 134.641 59.7491 136.535L51.6322 136.492L43.1602 136.5C45.3447 132.888 48.4135 128.698 50.7944 125.092L71.0654 94.7802L77.2017 85.5794C78.4454 83.7042 79.8797 81.6436 80.9879 79.707Z" fill="#0F0F0F"/>
</svg>
