<svg width="57" height="57" viewBox="0 0 57 57" fill="none" xmlns="http://www.w3.org/2000/svg">
<path d="M29.9795 2.7973C34.4999 2.49973 41.5533 3.35714 45.5883 5.54753C47.7017 6.69479 49.6591 8.49434 50.3109 10.8246C53.9691 23.9018 26.5593 26.3816 21.7918 35.7476C21.1161 37.0752 20.7833 38.6877 21.2387 40.11C21.6243 41.3141 22.4509 42.1582 23.5324 42.7352C25.2766 43.6657 27.7579 43.5851 29.5967 42.9285C35.7009 40.7486 40.2781 33.9478 43.3733 28.5495C44.4461 26.6787 45.368 24.6945 46.3176 22.802C47.0932 22.9009 48.7473 22.8583 49.5982 22.857L49.607 52.9906L34.9354 52.9836C36.4491 48.3271 38.5111 45.0545 40.9853 40.8483C43.1201 37.219 45.0828 33.7864 46.7583 29.9125C46.3135 29.6874 45.9171 29.5592 45.4478 29.3963C44.9324 30.5868 44.1806 31.9849 43.5775 33.1537C38.3941 43.0721 29.6678 55.265 16.8818 53.8767C9.6065 53.0869 5.17104 47.2691 6.15307 40.0883C7.86712 27.5543 24.7097 24.2851 34.6236 20.9775C37.7857 19.8451 42.3191 18.8038 44.9805 16.6785C49.451 13.1084 45.4946 10.245 41.448 10.0179C38.4655 9.7345 35.2763 10.0331 32.3299 10.6692C25.0534 12.2402 16.288 15.8526 10.4648 20.5481L10.4477 6.20689C17.4564 4.06403 22.7315 3.16965 29.9795 2.7973Z" fill="black"/>
</svg>
