<svg width="57" height="57" viewBox="0 0 57 57" fill="none" xmlns="http://www.w3.org/2000/svg">
<path d="M28.2651 33.1542C28.8772 33.807 29.4252 34.7408 30.0101 35.4426C33.8797 40.0855 39.6819 42.8317 45.7211 41.0547C50.4169 39.673 53.7704 36.3006 55.0564 31.5383C55.195 31.0249 55.1665 30.1943 55.4304 29.7495V27.1656C55.1797 26.6216 55.113 25.3303 54.8697 24.5821C53.6237 20.7445 50.9019 17.6586 47.1415 16.1346C43.4804 14.601 39.8404 14.8791 36.2442 16.4317C33.751 17.5081 31.1541 19.8496 29.5343 21.9974C29.1382 22.5226 28.7163 22.9953 28.451 23.6061C27.7033 22.8817 27.0924 21.8008 26.3861 20.9971C23.4802 17.6902 19.1608 15.0188 14.6057 15.0913C10.971 15.1516 7.5072 16.645 4.96795 19.2463C3.38474 20.8755 2.2488 22.8857 1.67003 25.0825C1.55849 25.5068 1.46011 26.6906 1.26172 26.9445V29.6946C1.42472 29.9406 1.46175 30.5448 1.51866 30.84C2.47767 35.8147 6.0046 39.6289 10.7679 41.0175C17.199 42.8923 23.0501 39.9658 27.0069 34.9654C27.4903 34.3546 27.9239 33.8568 28.2651 33.1542ZM17.3033 20.2499C17.7898 20.435 18.4672 20.6576 18.9166 20.8995C21.0951 22.0717 22.8892 23.8095 24.2593 25.8596C24.8588 26.7566 25.3876 27.3647 25.7511 28.4061C25.3489 29.4363 24.9912 29.7935 24.4059 30.6838C22.0039 34.3372 18.5168 37.1255 13.944 36.8169C6.31755 36.234 2.99092 27.3659 8.65183 22.0925C10.5562 20.3185 13.1098 19.6858 15.6437 19.9333C16.2309 19.9853 16.7376 20.0571 17.3033 20.2499ZM30.9307 28.3209C31.3519 27.3502 31.8267 26.6846 32.4134 25.8238C34.3178 23.03 37.2014 20.4434 40.6588 19.9664C43.5127 19.7431 45.8362 20.1575 48.0385 22.1389C53.697 27.2302 50.2856 36.278 42.8334 36.8139C42.3254 36.8504 41.8409 36.8428 41.3322 36.8157C38.227 36.5766 35.7744 34.9408 33.7462 32.6569C32.7629 31.5498 31.4447 29.6896 30.9307 28.3209Z" fill="black"/>
<path d="M10.8014 29.8144C11.6078 29.7714 12.7372 29.8057 13.5632 29.8056L18.8973 29.799C18.8736 29.3737 18.9756 27.4337 18.8036 27.2422C18.3611 27.274 17.4453 27.2462 16.9792 27.247L13.1113 27.2425C12.5273 27.2391 11.3974 27.2004 10.8631 27.3015C10.7114 27.478 10.7916 29.4334 10.8014 29.8144Z" fill="black"/>
<path d="M40.4576 32.486C41.2336 32.4958 42.2857 32.5215 43.0399 32.4528C43.0729 31.6664 43.0597 30.6391 43.045 29.8569C43.6674 29.7925 44.5407 29.803 45.186 29.7957C45.274 29.7664 45.4717 29.7304 45.501 29.6299C45.6018 29.2854 45.6387 27.6505 45.4341 27.4061C44.9855 27.3628 43.9761 27.391 43.7148 27.2329C43.5714 27.2166 43.2688 27.2547 43.1111 27.2697C43.1162 26.3952 43.0743 25.4226 43.1189 24.5599C42.2606 24.528 41.2937 24.5491 40.4314 24.5551C40.4988 25.2206 40.4433 26.4748 40.4687 27.2454C39.7471 27.1808 38.5322 27.2712 37.7422 27.2615C37.7831 28.0167 37.7549 29.0146 37.7554 29.7878C38.632 29.8238 39.5727 29.805 40.454 29.7982C40.4076 30.5215 40.459 31.7056 40.4576 32.486Z" fill="black"/>
</svg>
