<svg width="57" height="57" viewBox="0 0 57 57" fill="none" xmlns="http://www.w3.org/2000/svg">
<path d="M28.1426 1.33131C28.6708 1.3259 31.6653 3.18789 32.375 3.59401L42.6543 9.50904L48.4072 12.8274C49.5458 13.4828 51.0686 14.1513 51.8955 15.1331C51.1484 15.8718 49.6612 16.6499 48.7031 17.1985L42.7051 20.6448C41.8363 21.1424 40.4976 21.8053 39.7334 22.3811C39.1907 21.8713 37.1146 20.7901 36.3633 20.3421C33.7418 18.7788 30.8407 17.3102 28.29 15.6477C27.4364 16.2879 25.1057 17.5651 24.0488 18.1555C21.8816 19.3663 19.5164 20.8708 17.3145 21.9514L17.3389 34.7219C18.8151 35.2998 21.9075 37.313 23.4355 38.1292C24.2633 38.5713 27.7047 40.5279 28.2451 40.9885C31.6382 38.9065 35.1806 37.0154 38.6201 35.0081C39.082 34.7384 39.3586 34.5816 39.7617 34.221C40.4441 34.7946 44.0732 36.7755 44.9775 37.2913C46.0008 37.9457 50.804 40.4173 51.7314 41.4465C52.1205 41.8786 49.9069 42.9401 49.2705 43.304L44.7412 45.9133C41.0304 48.0769 37.3078 50.2204 33.5732 52.343C32.6121 52.8781 31.6588 53.4273 30.7139 53.9905C29.9871 54.426 29.0192 55.0684 28.249 55.3587C26.7217 54.5726 24.4873 53.1977 22.9248 52.2952L12.6885 46.3909L7.87109 43.6399C7.0575 43.179 5.4405 42.332 4.80176 41.7727L4.79688 14.8713C5.36007 14.3425 6.64845 13.6958 7.38672 13.2737L12.0293 10.634L28.1426 1.33131ZM27.6582 42.6311C26.5424 43.1076 25.5769 43.7596 24.5254 44.3421C22.3383 45.5536 20.0742 47.0196 17.8633 48.1467C19.0997 48.9031 20.3557 49.5571 21.5947 50.3118C22.9081 51.0471 24.2154 51.7958 25.5146 52.5559C26.1537 52.9265 27.1089 53.5179 27.7607 53.8157C27.784 50.9486 27.7734 45.8163 27.7734 42.7483C27.7351 42.7093 27.6965 42.6702 27.6582 42.6311ZM28.915 53.8118C31.0184 52.6576 33.0925 51.3453 35.2256 50.1917C36.3113 49.5425 37.7902 48.7877 38.7734 48.1477C35.5851 46.6161 32.1108 44.1359 28.918 42.5823L28.915 53.8118ZM16.1592 35.9299C15.4507 36.4577 13.7695 37.3092 12.9131 37.8049L9.04297 40.0462C8.26904 40.4981 7.17205 41.2027 6.3623 41.4983C7.5751 42.2198 9.03752 43.0108 10.1992 43.7405C11.3302 44.3992 12.4669 45.0494 13.6084 45.6897C14.3712 46.1171 15.5429 46.7185 16.1846 47.2669L16.2012 39.0755C16.2012 38.6524 16.2172 36.1917 16.1592 35.9299ZM39.1338 35.9417C37.7292 36.8477 35.5794 37.9107 34.0723 38.8313C33.0961 39.4276 30.2817 41.116 29.3848 41.4719C30.6797 42.3017 31.8702 42.9477 33.1826 43.718C34.5378 44.5334 38.2067 46.457 39.1924 47.259C39.1976 46.2973 39.2859 36.144 39.1338 35.9417ZM40.3516 47.2532C41.8563 46.1901 44.7872 44.7127 46.4883 43.6838C47.7888 42.9148 48.8675 42.3568 50.1387 41.51C48.0493 40.3855 45.9083 39.0306 43.8174 37.8616C43.123 37.4734 40.8802 36.2751 40.3516 35.9065V47.2532ZM17.3574 47.2473C19.0677 46.0332 21.6155 44.9053 23.4287 43.7053C24.7301 42.9653 25.9162 42.3295 27.165 41.4963C25.7009 40.7859 23.4464 39.37 21.9463 38.4944C20.5082 37.6548 18.6953 36.7226 17.3438 35.8967L17.3574 47.2473ZM5.91113 40.5501C7.93278 39.3737 10.0034 38.2365 12.0195 37.0471C13.194 36.4073 14.5556 35.5198 15.6934 34.9778C13.0914 33.2616 10.1217 31.8246 7.45996 30.178C7.10694 29.9595 6.24115 29.4101 5.90723 29.2688L5.91113 40.5501ZM16.1162 22.762C12.902 24.4127 9.62717 26.5868 6.31543 28.3137C7.68937 29.0356 9.04477 29.7948 10.3779 30.5891C12.2083 31.6094 14.4129 32.8628 16.1973 33.9602C16.2243 32.7069 16.362 23.0404 16.1162 22.762ZM5.90625 16.1057C5.89938 19.8447 5.86896 23.6639 5.91602 27.4006C7.92289 26.0679 10.2193 25.0082 12.1455 23.7512C13.3143 23.0696 14.5703 22.4113 15.6865 21.6721C12.4318 19.9383 9.18442 17.8526 5.90625 16.1057ZM17.3652 9.42311C17.3021 13.2014 17.3876 16.9988 17.335 20.7747C19.0284 19.6273 21.6561 18.4174 23.5547 17.1907C24.5854 16.606 26.1535 15.6202 27.1504 15.1419C24.2104 13.1319 20.3585 11.3531 17.3652 9.42311ZM39.0967 9.46608C38.3386 10.0396 35.7361 11.4735 34.7861 11.9876C32.9829 12.9633 31.0995 14.1929 29.3438 15.1458C30.3174 15.5211 32.1067 16.665 33.1104 17.2376C34.4464 18.0341 35.7954 18.8101 37.1562 19.5637C37.6634 19.8495 38.8001 20.4514 39.209 20.7532C39.2085 19.7541 39.2833 9.73476 39.0967 9.46608ZM40.3457 20.7366C42.2252 19.5615 44.5132 18.432 46.4883 17.2258C47.4359 16.6768 49.2151 15.5711 50.1582 15.136C47.1852 13.1152 43.3332 11.3475 40.3594 9.42506L40.3457 20.7366ZM16.0771 9.46022C15.2609 10.0733 12.9139 11.3694 11.8848 11.928C10.0609 12.9182 8.15329 14.152 6.37109 15.1204C7.33606 15.5106 9.04181 16.5907 10.0352 17.1594C11.3082 17.9184 12.5938 18.6576 13.8896 19.3772C14.515 19.7291 15.656 20.3303 16.1885 20.7258C16.1903 19.5444 16.2801 9.7561 16.0771 9.46022ZM28.916 14.0784C30.923 13.0014 33.1928 11.5053 35.1338 10.5374C36.3652 9.82084 37.4952 9.11381 38.7793 8.48854C35.5354 6.56929 32.1783 4.74602 28.915 2.81569L28.916 14.0784ZM27.6904 2.86842C26.5561 3.38283 24.1989 4.81449 23.0205 5.51295C21.4652 6.4348 19.2939 7.54592 17.8545 8.49733C19.2071 9.15365 20.2506 9.86554 21.5225 10.553C23.226 11.5229 26.104 13.3312 27.7686 14.0667C27.7703 12.8482 27.8456 3.12769 27.6904 2.86842Z" fill="black"/>
</svg>
