<svg width="57" height="57" viewBox="0 0 57 57" fill="none" xmlns="http://www.w3.org/2000/svg">
<path d="M26.8004 2.71414H29.8663C30.6583 2.99659 31.7601 2.86712 32.5728 3.02884C34.1622 3.34509 35.7206 3.7918 37.2376 4.35358C42.6961 6.37183 47.3032 10.1912 50.2982 15.1812C50.5543 15.612 50.7933 15.9682 51.0222 16.4213C52.2116 18.7427 53.07 21.2193 53.5726 23.7788C53.7087 24.4976 53.7833 26.0647 53.9766 26.6669V30.1315C53.7483 30.9976 53.7588 31.954 53.5841 32.8107C53.4044 33.6898 53.1571 34.7224 52.9088 35.5839C50.4183 44.2125 43.3052 50.9891 34.6111 53.1769C34.0376 53.3211 33.4684 53.5328 32.8812 53.6179C32.4501 53.688 31.1855 53.7691 30.8863 53.9759H25.8492C25.4076 53.715 24.103 53.7281 23.5313 53.5634C21.9582 53.1108 20.1898 52.6899 18.6754 52.073C11.5925 49.1771 6.17083 43.2723 3.88876 35.9684C3.57997 35.0051 3.37481 33.8718 3.11045 32.8869C2.92687 32.203 3.01514 31.1669 2.72906 30.5117L2.71484 30.48V26.3243C2.94401 25.7913 2.96319 24.4552 3.11605 23.7609C3.71946 21.0205 4.45077 18.6457 5.79296 16.1632C8.39839 11.3473 12.4814 7.49527 17.4408 5.17446C17.8028 5.00298 18.2164 4.7909 18.5912 4.65139C20.6021 3.90292 22.7551 3.14772 24.9033 2.9554C25.4404 2.90732 26.247 2.88786 26.7553 2.7287L26.8004 2.71414ZM32.9649 44.9073C33.7226 44.1808 34.4421 43.5744 34.7162 42.5149C33.6345 41.8862 28.0426 38.9612 27.4334 38.2382L27.4285 38.2151C27.322 37.6911 27.3613 36.2114 27.3628 35.6117L27.3716 31.0035C27.3719 30.3717 27.4234 29.6053 27.2708 28.9919C27.236 28.8518 27.1374 28.7999 27.029 28.7216C25.6916 27.9605 24.355 27.1956 23.0152 26.4383C22.3989 26.0899 21.8531 25.7411 21.1946 25.464C21.0606 26.1391 21.0987 27.4369 21.1001 28.1815L21.1027 31.9277L21.0995 36.9537C21.0985 38.0477 21.0505 39.4912 21.224 40.5356C21.4083 41.6283 21.8273 42.6682 22.452 43.5835C23.5253 45.178 25.518 46.3802 27.4357 46.6015C29.3033 46.8169 31.5449 46.1794 32.9649 44.9073ZM25.7278 25.7214C26.7407 26.2515 27.2424 26.7019 28.3576 27.1544C29.4039 26.6868 30.2496 26.0821 31.2429 25.5164C31.9246 25.1283 32.5817 24.747 33.2474 24.332C33.6048 24.1092 33.927 23.9891 34.2708 23.71C34.3401 23.321 32.2438 22.2837 31.9022 22.0862L27.1945 19.3822C25.4469 18.3813 23.7649 17.341 21.9636 16.4305C20.4662 15.6736 19.2999 15.6002 17.6345 15.7531C15.3594 16.0814 14.1939 16.8322 12.8671 18.6526C11.5632 20.4416 11.4045 21.992 11.6432 24.1586C11.7019 24.6905 12.355 26.6309 12.8591 26.7294C13.3163 26.5755 13.8071 26.1467 14.2278 25.8954C15.016 25.4246 19.3962 22.8156 20.0969 22.7259C20.3457 22.6941 20.6378 22.8291 20.8551 22.938C21.2478 23.1348 21.6226 23.379 22.0041 23.5971C23.239 24.303 24.4709 25.0606 25.7278 25.7214ZM43.6453 29.9407C41.8963 31.206 40.1435 32.09 38.2816 33.1694C36.3927 34.2644 34.4931 35.3494 32.6079 36.4499C31.8992 36.8637 31.062 37.2793 30.385 37.6857C31.0314 38.271 32.544 39.0791 33.3583 39.5726C35.1057 40.5162 36.3311 41.1515 38.4083 41.0151C38.9146 40.9708 39.4506 40.9525 39.9385 40.7849C41.8182 40.1396 43.2733 39.0658 44.2633 37.3292C45.2417 35.613 45.3399 33.7079 44.8656 31.8074C44.7691 31.4206 44.2389 30.2335 43.8947 29.9671C43.8206 29.9291 43.7356 29.9409 43.6453 29.9407ZM18.9924 25.4802C18.141 25.9202 17.3707 26.4341 16.5517 26.8863C14.3576 28.0978 12.6774 29.1729 11.8662 31.7165C11.2886 33.5004 11.4454 35.4409 12.3019 37.109C12.5244 37.5363 13.4071 38.9132 13.7642 39.1466C15.5017 40.7398 16.7802 41.1209 19.1302 41.0356C19.1874 41.0334 19.2444 41.0288 19.3011 41.0217C19.1492 39.3418 19.1983 37.6537 19.1982 35.9649L19.1979 28.6628C19.198 28.15 19.2615 25.7722 19.12 25.5246C19.0745 25.5049 19.0399 25.484 18.9924 25.4802ZM27.4605 10.1452C24.8975 10.703 22.9862 11.6592 21.907 14.1915C23.1774 14.8067 24.351 15.525 25.5758 16.2248L31.8751 19.851C33.1949 20.5187 34.0907 21.2507 35.518 21.8021C35.6065 20.9342 35.5456 20.0651 35.5725 19.2124C35.6471 16.8461 35.4762 14.6227 33.9059 12.7175C32.2652 10.7267 29.9468 10.0306 27.4605 10.1452ZM29.3799 36.0756C29.8201 35.6888 30.5358 35.4024 31.0427 35.0866C32.0239 34.4753 33.2407 33.8802 34.1837 33.2503C35.9614 32.2723 37.724 31.2671 39.4708 30.235C40.5237 29.6206 41.7432 29.0299 42.6313 28.2193C44.1371 26.845 45.1031 25.0229 45.0951 22.9656C45.0895 21.4946 44.927 20.4371 44.1506 19.1445C43.1866 17.5025 41.7821 16.465 39.9529 15.9569C38.9522 15.679 38.4087 15.751 37.4487 15.6763C37.4454 15.6863 37.4417 15.6961 37.4387 15.7062C37.316 16.1196 37.4599 16.9806 37.4723 17.4554C37.4966 18.3836 37.6268 23.5511 37.3069 24.0714C36.9728 24.6148 36.1037 25.0125 35.5641 25.3207L31.4916 27.6542C30.9083 27.9882 30.2496 28.2849 29.7041 28.6695C29.5602 28.7709 29.4351 28.8651 29.3855 29.0416C29.226 29.6078 29.2736 35.2686 29.3799 36.0756Z" fill="black"/>
</svg>
