<svg width="57" height="57" viewBox="0 0 57 57" fill="none" xmlns="http://www.w3.org/2000/svg">
<path d="M26.1721 1.61005H30.4661L30.511 1.62562C31.0113 1.79353 31.9707 1.8155 32.53 1.91499C33.6882 2.12096 34.8306 2.37366 35.9574 2.70927C42.9467 4.79897 48.7853 9.64191 52.1308 16.1246C53.3012 18.4071 54.1388 20.8455 54.6171 23.3655C54.7257 23.9633 54.9471 25.9807 55.0792 26.3686V30.3729L55.0641 30.4202C54.9038 30.9432 54.7978 32.2918 54.6939 32.893C54.5169 33.9176 54.3064 34.8168 54.0156 35.8197C52.0095 42.6591 47.3677 48.421 41.1122 51.8373C38.7748 53.1117 36.2631 54.0361 33.6572 54.5817C33.0842 54.6971 30.8791 54.9389 30.5665 55.0799H26.2122C25.8486 54.9551 23.9138 54.7149 23.3948 54.6256C21.7255 54.3217 20.0908 53.8507 18.5156 53.2201C11.0507 50.2579 5.30464 44.1084 2.85506 36.46C2.52352 35.4163 2.30472 34.4489 2.07138 33.3866C1.92831 32.7352 1.84771 31.0743 1.60938 30.5718V26.1162C1.73647 25.8445 2.00231 23.6721 2.11814 23.1058C2.57648 20.7949 3.34044 18.5552 4.38985 16.4459C7.67899 9.81809 13.5677 4.84961 20.6546 2.7229C21.7832 2.39024 22.9312 2.12741 24.0921 1.93591C24.622 1.8504 25.7042 1.78139 26.1721 1.61005ZM17.1945 39.455C18.6482 39.4999 20.2577 39.4247 21.6582 39.4874L21.6634 17.2496L18.8925 17.2422C18.4617 17.2444 17.6514 17.2843 17.2535 17.2299C17.1106 17.7407 17.2042 21.3687 17.2047 22.0477L17.2087 33.5251C17.209 35.3701 17.2808 37.669 17.1945 39.455ZM26.1021 35.0571C26.1505 36.2878 26.1361 38.1982 26.1024 39.4443C27.6352 39.5118 29.3048 39.4804 30.8495 39.4804L38.5396 39.4795C38.8291 39.4823 39.203 39.4766 39.486 39.4949C39.4584 38.3534 39.4206 36.1703 39.4961 35.06L31.827 35.045C30.2859 35.0453 28.6302 35.016 27.0966 35.0559C26.7452 35.0672 26.4534 35.0773 26.1021 35.0571ZM26.1171 26.1457C26.1062 27.6082 26.105 29.0707 26.1137 30.5332C29.2014 30.5673 32.2895 30.5753 35.3774 30.5573C36.4536 30.557 38.4251 30.4934 39.4459 30.5724C39.502 30.2005 39.4822 29.4911 39.4886 29.1013C39.5045 28.1335 39.4529 27.1199 39.4847 26.1546L30.1848 26.1462L27.6207 26.1555C27.2078 26.1587 26.5059 26.1875 26.1171 26.1457ZM27.1572 17.2485C26.797 17.2621 26.4757 17.279 26.1152 17.254C26.106 18.5608 26.1712 20.3908 26.0947 21.6318C27.6806 21.6841 29.338 21.6605 30.929 21.66L38.4482 21.6597L39.4848 21.6693C39.3978 20.6026 39.4847 18.4248 39.4841 17.2442C35.4642 17.2522 31.1523 17.1471 27.1572 17.2485Z" fill="black"/>
</svg>
