<svg width="57" height="57" viewBox="0 0 57 57" fill="none" xmlns="http://www.w3.org/2000/svg">
<path d="M3.86328 44.049L3.88451 44.0139C4.05157 43.7343 4.198 43.3529 4.34888 43.0488C4.65086 42.4401 4.95352 41.8327 5.25986 41.2259C6.21467 39.3608 7.18075 37.5014 8.15803 35.6479C11.3504 29.5968 14.5849 23.568 17.8613 17.562C18.8106 15.8167 19.7701 14.077 20.7398 12.343C21.6167 10.7704 22.4842 9.16559 23.5876 7.73639C24.0587 7.1305 24.5714 6.68575 25.3389 6.50896C26.3631 6.27303 27.4387 6.29567 28.4903 6.30137C29.673 6.30777 31.0999 6.25981 32.1506 6.8805C33.0076 7.38678 33.6482 8.50652 34.2105 9.31798C35.1787 10.8727 36.0842 12.5565 36.9683 14.1623C38.3907 16.7372 39.795 19.3221 41.1811 21.9167C44.5485 28.1154 47.8492 34.3501 51.0827 40.6197C51.5198 41.4843 51.9499 42.3526 52.3726 43.2243C52.5046 43.4964 52.6973 43.9536 52.8273 44.1934V45.1723C52.3587 47.1238 51.1009 49.6541 49.0276 50.283C46.9706 50.907 45.9627 48.7085 45.0842 47.2814L43.1653 44.1165C41.5832 41.5277 30.4848 22.8323 29.1082 22.0754C28.6875 21.8441 27.8834 21.8145 27.4828 22.1101C26.8533 22.5745 25.2529 25.164 24.742 25.9372C21.4917 30.8558 18.4358 35.9256 15.4123 40.986C14.3644 42.7492 13.3045 44.5051 12.2327 46.2538C11.5816 47.3216 10.9346 48.396 10.2041 49.4114C9.41745 50.5051 7.98906 50.6433 6.88994 49.9544C5.2209 48.9083 4.33906 47.0112 3.86328 45.1665V44.049Z" fill="black"/>
</svg>
