<svg width="57" height="57" viewBox="0 0 57 57" fill="none" xmlns="http://www.w3.org/2000/svg">
<path d="M40.2236 18.6163C40.292 19.1786 40.262 20.0537 40.2607 20.6417L40.2568 23.9698C40.2581 28.4785 40.1595 33.0748 40.1992 37.5763C38.6451 37.568 37.0911 37.5747 35.5371 37.5948C35.5051 36.8765 35.4929 36.003 35.5322 35.2862C34.3212 35.2566 33.1097 35.2525 31.8984 35.2726C31.7058 35.2798 31.4322 35.3163 31.2344 35.337C30.8672 36.0385 30.5866 36.8596 30.2139 37.6036C28.6861 37.5658 27.0805 37.5983 25.5469 37.6075C25.6811 36.6973 26.5865 35.0706 27.0078 34.1495L29.6543 28.3077C29.9516 27.6401 30.1821 26.9269 30.4814 26.2638C31.0046 25.1053 31.6306 23.9424 32.1367 22.7804C32.7222 21.4361 33.2724 19.8758 34 18.6075C36.0745 18.5922 38.1492 18.595 40.2236 18.6163ZM36.0146 23.6134C35.6841 24.3052 32.982 31.016 32.9912 31.1417C33.5799 31.1463 35.0725 31.1885 35.5918 31.1183C35.6576 30.838 35.7735 30.3153 35.7861 30.0401C35.8158 29.3973 35.8385 28.4522 35.8418 27.8321C35.8455 27.1434 36.1195 24.1579 36.0146 23.6134Z" fill="black"/>
<path d="M10.5725 18.3533C10.6246 18.3533 10.6767 18.3536 10.7287 18.3542C12.2358 18.3718 13.3997 18.6499 14.4946 19.7359C15.5813 20.8137 16.097 23.4662 16.0762 24.9529C14.97 25.1103 12.7154 25.0515 11.5001 25.0541C11.4241 24.5687 11.3559 23.7802 11.1588 23.3564C10.8107 22.6079 9.94541 22.5482 9.28659 22.8815C8.2411 23.4103 7.91237 24.2444 7.47308 25.2621C7.24236 25.7964 7.00283 26.3133 6.8294 26.8706C6.3169 28.5755 5.90784 31.1259 6.60175 32.8089C6.75117 33.1358 7.18488 33.4558 7.53734 33.5178C9.4765 33.8587 10.2637 32.2393 10.6817 30.8372C10.1992 30.871 9.66974 30.8423 9.18301 30.8272C9.21114 29.7152 9.6938 28.2974 9.88913 27.1491C12.1147 27.0784 14.5531 27.0823 16.7845 27.1064L17.2883 27.0912C17.1152 28.4519 16.6726 29.6228 16.5097 30.8569C16.0965 30.8455 15.6836 30.8235 15.2715 30.7908C13.9693 34.6284 12.4001 37.6613 7.81235 37.9092C3.83491 38.1241 1.88898 35.0693 1.75767 31.3855C1.68189 29.2607 2.36866 25.8183 3.26409 23.85C3.73016 22.813 4.35401 21.8544 5.11344 21.0084C6.74801 19.1813 8.13784 18.4879 10.5725 18.3533Z" fill="black"/>
<path d="M47.46 18.6071C49.7119 18.6088 51.7119 18.6149 53.4609 20.322C54.5911 21.4244 54.93 22.9389 54.9365 24.486C54.9467 26.9475 54.1144 29.4123 52.3418 31.1765C49.9548 33.5517 47.7619 33.7321 44.5967 33.7067C44.1638 33.7008 43.8412 33.6804 43.4102 33.6384C45.969 35.3083 45.8092 34.4633 45.1318 37.5886C43.7092 37.6289 42.1087 37.6001 40.6777 37.5895C40.7833 36.5486 41.0199 35.7616 41.2588 34.7546L42.2549 30.57C42.5049 29.4892 42.6918 28.3781 42.9316 27.2907C43.5845 24.3841 44.2841 21.4875 45.0293 18.6032L47.46 18.6071ZM49.7002 22.8874C48.6866 22.6138 47.2155 22.7768 46.1113 22.7507C46.311 23.1097 47.7561 23.7274 48.1719 23.9772C47.8956 25.5739 47.1288 28.2272 47.0586 29.6804C47.6273 29.5255 48.1064 29.3618 48.6045 29.0339C49.2364 28.5847 49.646 28.0963 49.873 27.3434C50.2561 26.0757 50.7167 23.9682 49.7002 22.8874Z" fill="black"/>
<path d="M22.6331 18.3512C23.0609 18.2751 23.8506 18.3229 24.2803 18.342C27.5933 18.4896 29.0297 21.1305 28.7762 24.2438C27.5743 24.3235 25.7477 24.2845 24.5037 24.2744C24.3606 23.3333 24.3474 22.5194 23.2859 22.2207C22.3432 22.3746 21.828 22.9028 22.0322 23.9068C22.3907 25.6698 24.002 26.5787 25.0353 27.9115C25.7235 28.7991 26.3251 29.9214 26.4797 31.0547C26.6635 32.7167 26.502 34.4561 25.4425 35.8161C24.4582 37.0795 22.9041 37.7161 21.3695 37.9201C19.3116 38.0047 17.7487 37.8246 16.3621 36.2223C15.2274 34.9112 15.2457 33.5266 15.3415 31.9014C16.8027 31.8787 18.3346 31.838 19.7881 31.8807C19.794 32.9973 19.6954 33.5075 20.7945 34.0442C21.5732 33.8401 21.9584 33.3783 21.9209 32.5703C21.7843 30.525 19.5864 29.2829 18.4729 27.6983C17.0837 25.7214 16.8381 22.678 18.3428 20.6877C19.4368 19.2408 20.8353 18.5649 22.6331 18.3512Z" fill="black"/>
</svg>
