<svg width="57" height="57" viewBox="0 0 57 57" fill="none" xmlns="http://www.w3.org/2000/svg">
<path d="M28.6994 2.05457L28.8942 2.15304C29.3866 3.24378 30.4707 4.97517 31.1024 6.04199C32.5011 8.41484 33.9218 10.7746 35.3642 13.1209L44.8589 28.9449C45.5777 30.1462 49.3067 36.0714 49.2565 36.9457C48.8694 37.5583 42.8672 39.3666 41.7525 39.7516C39.6548 40.6051 38.5786 40.9503 36.3769 41.5201C38.0331 34.7019 36.9819 34.1273 33.5368 28.2223L29.122 20.6334L25.5037 14.4191C24.7935 13.1885 24.0639 11.7867 23.2656 10.6392C24.072 8.68842 27.2241 3.50772 28.6994 2.05457Z" fill="black"/>
<path d="M22.4746 12.1618C24.2779 15.0644 25.7613 18.0529 27.6812 21.1135C27.2554 22.0331 26.5832 22.873 26.145 23.739C24.2151 27.5531 21.2107 31.285 19.9987 35.3446C19.3871 37.394 20.1786 39.6285 21.1663 41.4233C22.7267 44.2586 25.6709 45.1053 28.589 45.8431C28.205 46.1602 27.7383 46.6074 27.3625 46.9502C27.8529 47.0734 28.439 47.4995 28.4252 48.0503C27.3839 48.8422 23.7234 51.7948 21.9513 53.5149L21.5775 53.8887C22.6968 52.7267 25.1376 50.6809 26.8499 49.2963C27.5347 48.7425 28.1046 48.2941 28.4252 48.0503C28.4393 47.4885 27.8568 47.0742 27.3625 46.9502C25.0084 49.0494 21.8284 51.3434 19.6373 53.3814C19.0557 53.7414 18.8225 54.396 18.005 54.2198C17.093 53.7383 12.6457 45.8244 11.686 44.314C10.6081 42.6177 8.2192 38.7944 7.43359 36.9875C7.95772 35.6851 9.21293 33.7544 9.96476 32.5197L13.9182 26.0263C16.7627 21.3647 19.2662 16.5938 22.4746 12.1618Z" fill="black"/>
<path d="M28.4252 48.0509C29.4581 47.2116 32.0333 44.85 33.0775 44.3834C36.4469 42.8781 40.3268 41.6855 43.9198 40.8232C44.7393 40.6266 47.0606 39.6816 47.703 39.8839C47.7447 40.2843 39.9544 53.0992 39.0116 54.5748C37.3848 54.5775 21.7992 54.7648 21.082 54.4674C21.8951 53.2725 27.1436 49.0255 28.4252 48.0509Z" fill="black"/>
</svg>
