<svg width="57" height="57" viewBox="0 0 57 57" fill="none" xmlns="http://www.w3.org/2000/svg">
<path d="M47.037 6.74439C48.3831 6.48848 49.9583 6.7694 51.048 7.60946C52.7468 8.91914 53.1262 11.1871 51.8068 12.9079C50.4298 14.7037 48.3748 14.4353 46.3951 14.6823C40.8882 15.4102 37.8489 18.9927 35.2838 23.5684C33.0347 27.5805 30.9856 31.6393 28.7568 35.661C27.6692 37.6237 26.6201 39.6241 25.2297 41.3883C20.8634 46.8921 16.869 49.1198 10.037 49.9928C7.6677 50.1922 4.39211 49.8155 4.1201 46.7193C3.66403 41.5298 8.82295 42.5744 12.1148 41.678C13.9641 41.1545 15.6586 40.1902 17.0529 38.8675C19.532 36.4985 21.6967 32.6928 23.307 29.6486C29.0938 18.708 32.8339 8.09054 47.037 6.74439Z" fill="black"/>
</svg>
