<svg width="57" height="57" viewBox="0 0 57 57" fill="none" xmlns="http://www.w3.org/2000/svg">
<path d="M27.5399 3.12991C30.5499 2.85897 34.2375 3.89298 36.8134 5.44046C40.2231 7.44392 42.6931 10.7242 43.6766 14.5547C44.1908 16.6419 44.1759 18.5059 43.8846 20.6201C42.8724 27.9671 36.9313 31.3387 32.5048 36.5166C31.5854 37.5942 30.7691 38.7556 30.0663 39.9854C29.6669 40.6955 29.3433 41.4296 28.9218 42.1299C28.2232 42.7202 27.4626 42.3786 27.1376 41.6153C23.3658 32.7513 13.1958 29.7145 12.6268 19.1914C12.1385 10.1575 18.7842 3.62496 27.5399 3.12991ZM36.1376 17.8409C35.7712 13.5201 31.9652 10.3179 27.6454 10.6963C23.3427 11.0733 20.1565 14.8613 20.5214 19.1651C20.8864 23.469 24.6655 26.6667 28.9706 26.3135C33.2922 25.9589 36.5041 22.1616 36.1376 17.8409Z" fill="black"/>
<path d="M22.3299 44.9964C24.2247 44.8598 26.8317 45.0499 28.8294 45.0001C30.4948 45.0585 32.2822 44.925 33.9289 45.1121C35.0259 45.2368 35.0242 47.7285 34.9301 48.5185C34.7478 50.0484 35.4787 52.7004 33.9034 53.5496C33.3103 53.6214 32.0112 53.585 31.381 53.5807L26.9439 53.548C26.4141 53.5439 25.8063 53.5571 25.2817 53.5353C22.7414 53.4298 21.1066 54.2211 21.2916 50.7692C21.3684 49.3356 21.1956 47.6424 21.4096 46.2095C21.4935 45.6487 21.8692 45.2705 22.3299 44.9964Z" fill="black"/>
</svg>
