<svg width="57" height="57" viewBox="0 0 57 57" fill="none" xmlns="http://www.w3.org/2000/svg">
<path d="M28.3457 3.63379C41.9931 3.63379 53.0565 14.6974 53.0566 28.3447C53.0566 37.0978 48.5055 44.7877 41.6406 49.1777C40.8281 47.9457 39.9734 46.7129 39.1582 45.4824L27.8838 28.541L24.0244 22.7598C23.6425 22.1758 22.7761 20.9267 22.4844 20.3496C21.5767 20.2998 20.6669 20.2956 19.7588 20.3359L19.7637 33.0215C19.7636 35.202 19.729 37.5027 19.7754 39.6738C20.637 39.6849 21.4988 39.6848 22.3604 39.6738L22.3691 30.4502C22.3692 29.0012 22.3085 26.8761 22.416 25.4785C22.7705 26.163 23.3938 26.9564 23.8545 27.5977L36.1113 44.6904L38.9893 48.7256C39.2116 49.038 39.6465 49.7129 39.9873 50.1455C36.5183 52.0018 32.5552 53.0557 28.3457 53.0557C14.6982 53.0557 3.63477 41.9922 3.63477 28.3447C3.63492 14.6974 14.6983 3.63379 28.3457 3.63379ZM36.9824 20.3135C36.1021 20.3198 35.2202 20.3199 34.3398 20.3145C34.1342 20.3312 34.126 20.2951 34.0273 20.4111C33.9956 21.1287 34.024 22.0013 34.0264 22.7285L34.0254 30.3496C34.0252 31.0501 34.0049 31.9133 34.0488 32.6016C34.3931 32.9643 34.7853 33.6159 35.0762 34.0527L36.8359 36.7275L36.9336 36.792C37.0555 36.5876 36.9827 22.0716 36.9824 20.3135Z" fill="black"/>
</svg>
