<svg width="57" height="57" viewBox="0 0 57 57" fill="none" xmlns="http://www.w3.org/2000/svg">
<path d="M24.1733 9.12332C25.5007 9.17272 26.3328 10.3283 27.3345 11.0989C28.4806 11.9807 29.6286 12.8434 30.8911 13.5579C33.8639 15.2154 37.0701 16.4154 40.4009 17.1165C43.4288 17.7237 46.5641 17.7708 49.6616 17.5218C50.4468 17.5238 54.0355 16.5984 54.4575 17.2317C55.1685 18.2998 53.8915 23.6691 53.6557 24.6682C51.9258 32.0001 48.6431 39.7334 42.647 44.5481C39.4732 47.0963 35.8477 47.9377 31.8872 47.4221C31.389 47.3467 30.8939 47.25 30.4038 47.1331C27.2227 46.3569 24.0108 44.2862 22.2837 41.4563C20.202 42.4161 17.6261 42.6764 15.397 42.1341C11.6054 41.2116 8.8204 38.1519 6.85399 34.9563C4.47345 31.0877 3.18214 26.9837 2.3745 22.5413C2.19707 21.5318 1.88683 20.4251 2.08153 19.4026C2.23934 18.5751 3.21262 18.8923 3.78563 19.0022C7.04196 19.6451 10.3989 19.5786 13.6274 18.8079C15.7699 18.3139 19.3998 17.162 21.0522 15.721C21.9022 14.9798 22.8536 9.86696 24.1733 9.12332ZM25.0141 32.0862C25.0896 32.3247 25.1647 32.5732 25.2524 32.8069C27.4778 38.7346 35.4042 41.3049 40.7173 37.9915C41.3072 37.5995 41.62 37.3226 42.1059 36.804C41.1215 36.4951 40.1165 36.2655 39.1216 35.9886L32.1362 34.0384C30.8089 33.6647 29.5026 33.2792 28.1616 32.9358C27.2127 32.6927 25.9733 32.2467 25.0141 32.0862ZM19.0806 31.552C15.9932 32.6751 14.0864 34.0551 13.1011 37.2923L13.685 37.1282C15.6613 36.5297 17.7509 35.9676 19.7563 35.3889C19.6391 34.7211 19.5408 34.0498 19.4624 33.3763C19.4157 32.9786 19.326 31.9404 19.2202 31.6155C19.144 31.5659 19.1569 31.5571 19.0806 31.552ZM47.5444 29.4573C46.6784 27.2923 44.7532 25.9495 42.394 26.136C40.5583 26.3589 39.5787 27.0423 38.4302 28.5061L38.3608 28.595C39.0583 28.7494 39.9337 29.0391 40.6421 29.2493C42.0684 29.6868 43.504 30.0951 44.9468 30.4749C45.9765 30.7472 46.982 31.0869 48.0151 31.344C47.8951 30.6858 47.795 30.0839 47.5444 29.4573ZM14.5122 24.678C12.8261 25.076 11.146 25.5009 9.47313 25.9514C8.86648 26.1141 7.77973 26.3695 7.23485 26.5608C7.61175 27.0406 7.78575 27.2552 8.28954 27.6272C9.15623 28.1402 9.78752 28.4107 10.8218 28.3587C12.1633 28.291 13.4099 27.5082 14.0561 26.3294C14.2973 25.8949 14.6564 25.2315 14.6597 24.7249C14.569 24.6617 14.6168 24.6742 14.5122 24.678ZM30.4995 22.3567C29.8144 21.9436 28.5903 21.5778 27.7944 21.6624C26.2023 21.7996 24.2973 22.7099 23.52 24.1624C25.6937 24.7328 27.8576 25.3411 30.0102 25.9866C31.1013 26.3139 32.131 26.5571 33.2417 26.8118C32.7501 24.9778 32.2545 23.4152 30.4995 22.3567Z" fill="black"/>
</svg>
