<svg width="57" height="57" viewBox="0 0 57 57" fill="none" xmlns="http://www.w3.org/2000/svg">
<path d="M3.55957 3.56589C4.28548 3.58167 5.03722 3.58448 5.78809 3.58151L8.52051 3.56686L18.418 3.56784C18.3686 8.48025 18.3953 13.5141 18.4131 18.4243C17.767 18.4155 17.1076 18.4139 16.4717 18.4243C14.2538 18.4603 12.0187 18.4331 9.77441 18.4126C7.70343 18.3937 5.62553 18.3839 3.56055 18.4331C3.51042 13.5437 3.52485 8.46069 3.55957 3.56589Z" stroke="black"/>
<path d="M20.9902 7.90587L20.9824 4.8336C20.9817 4.61696 20.9763 4.27416 20.9795 3.92931C20.9807 3.799 20.9845 3.67624 20.9883 3.56602C21.4603 3.57553 22.0123 3.56497 22.3467 3.56505H25.7441L35.8027 3.5631L35.7998 18.4244C35.216 18.4096 34.6078 18.4155 34.0566 18.4234C31.8107 18.4556 29.5507 18.4322 27.2832 18.4147C25.1881 18.3985 23.0873 18.3891 20.9961 18.4313C20.963 14.9363 20.9905 11.4113 20.9902 7.90782V7.90587Z" stroke="black"/>
<path d="M20.4983 20.5443L36.3077 20.5588L36.2984 36.3582L20.4997 36.3576C20.4612 34.4184 20.4925 32.3663 20.4922 30.4154L20.4983 20.5443Z" fill="black"/>
<path d="M53.1318 3.56374L53.1357 13.2522C53.1362 14.8822 53.1904 16.8036 53.1406 18.429C51.3495 18.3741 49.2428 18.426 47.5254 18.4231C44.501 18.4179 41.4227 18.399 38.3887 18.426L38.3906 9.82155C38.3909 7.79022 38.4239 5.62229 38.3896 3.56374H53.1318Z" stroke="black"/>
<path d="M3.08635 37.8763C4.86764 37.937 6.90436 37.8935 8.70424 37.8936L18.9096 37.8957L18.9173 53.6116C17.0997 53.6719 15.0651 53.6308 13.2342 53.6308L3.06862 53.6303C3.14903 48.4318 2.95443 43.0541 3.08635 37.8763Z" fill="black"/>
<path d="M53.1338 31.3167V31.3177L53.1416 34.4544V34.4554C53.1432 34.8713 53.1543 35.4107 53.1416 35.8607C52.1642 35.8494 51.1789 35.8465 50.1943 35.848L46.7734 35.8558L38.3877 35.8597C38.4143 33.7409 38.3899 31.5569 38.3896 29.4583V21.0453L53.1318 21.0394L53.1338 31.3167Z" stroke="black"/>
<path d="M20.497 37.8823C25.7288 37.9732 31.0645 37.8449 36.3127 37.9048L36.3059 53.6116C34.1971 53.6622 31.9902 53.6313 29.8701 53.6318L20.4941 53.6242L20.497 37.8823Z" fill="black"/>
<path d="M37.9149 37.8858C38.4066 37.915 39.1655 37.8925 39.6819 37.8925L43.1275 37.8923L53.6283 37.894L53.637 53.6288H37.9043C37.9668 48.4185 37.9147 43.1048 37.9149 37.8858Z" fill="black"/>
</svg>
