<svg width="57" height="57" viewBox="0 0 57 57" fill="none" xmlns="http://www.w3.org/2000/svg">
<path d="M16.6987 2.77528C19.0103 2.69338 21.0246 3.22624 23.2817 3.53602C23.9501 3.62776 24.9309 3.44286 25.6342 3.42567C27.1798 3.38788 28.7648 3.34267 30.2963 3.59266C30.9698 3.7065 33.126 4.45683 33.6674 4.86805C34.0374 4.71851 34.3968 4.61672 34.7846 4.51063C38.929 3.37685 44.3795 2.59279 48.2953 4.78407C50.739 6.15166 52.1383 8.48752 52.7758 11.1571C53.2966 13.3372 53.206 16.2661 53.0414 18.537C52.9832 19.3364 52.6122 21.0365 52.434 21.8622C51.3626 26.8274 49.9361 32.2174 47.475 36.6737C46.622 38.2182 44.919 40.3826 43.1674 40.7743C41.4555 41.157 40.4571 40.6649 39.0766 39.8417C38.2996 40.4476 37.5741 40.8746 36.6362 41.1757C34.864 41.7445 31.9693 41.7828 30.2983 40.8974C30.3228 42.5485 30.1436 45.701 29.8871 47.3612C29.3718 50.1723 28.0795 53.728 24.6586 53.9218C23.0385 54.0131 22.3331 53.8375 20.7846 53.4647C14.4822 51.9469 14.1493 45.0279 13.9379 39.6044C10.4786 39.5755 6.96585 39.0161 4.49944 36.3544C3.4651 35.2381 2.98746 33.4214 4.38812 32.3602C5.96417 31.1664 8.23984 32.1663 10.0502 32.3593C9.61302 31.4883 9.08856 30.6564 8.66546 29.7958C6.25762 24.8736 4.10315 19.5895 3.90081 14.0438C3.80378 11.3841 3.9343 9.55264 5.82562 7.57802C8.15358 5.14757 10.8185 3.60821 14.186 3.07997C15.0583 2.94313 15.8116 2.80399 16.6987 2.77528ZM16.978 4.1493C16.7522 4.15714 16.4222 4.14664 16.2006 4.1786C15.292 4.25486 14.35 4.33005 13.4701 4.55067C10.7589 5.23054 8.4141 6.71454 6.56585 8.7997C5.18667 10.3152 5.11207 12.6177 5.31292 14.5643C5.94054 20.6473 8.44695 26.5779 11.5063 31.8222C11.7631 32.2625 12.1384 32.8316 12.3217 33.2977C10.921 33.5932 9.52589 33.5057 8.06097 33.3212C7.20129 33.2129 4.69801 32.6074 5.01312 34.4061C5.14577 35.1619 6.56026 36.2296 7.18304 36.5936C9.24254 37.9338 12.5469 38.2219 14.9389 37.8876C14.9961 39.7163 15.3317 41.8406 15.5981 43.6659C15.9489 45.9481 16.1601 48.9851 17.9301 50.6405C19.6565 52.2551 23.5255 53.1925 25.6869 52.1503C28.8977 50.6017 29.0408 46.2315 29.0991 43.1757C29.1299 41.5581 29.186 39.9899 29.2778 38.4423C29.9759 39.1989 31.6522 39.9584 32.7006 39.9823C34.2789 40.119 36.347 40.0625 37.6371 38.9862C38.1349 38.5709 38.5638 37.8621 38.0092 37.3056C36.9072 36.1999 34.9834 36.3306 33.6791 35.5477C33.2663 35.2967 32.6605 34.5442 32.3696 34.161C33.2907 34.0489 34.4264 33.6363 35.3266 33.3309C35.8739 34.0243 36.4883 34.6564 37.0649 35.3241C37.9207 36.3152 39.2807 38.0775 40.2866 38.8036C40.6768 39.0854 41.1586 39.2561 41.6352 39.3124C42.5168 39.4165 43.3571 39.1853 44.0522 38.6298C48.1604 35.346 51.158 22.3816 51.7241 17.1386C52.0435 14.1788 51.577 10.3519 49.6557 7.97743C48.0491 5.99198 45.7958 5.06452 43.2934 4.80653C41.0837 4.57877 38.664 4.90953 36.516 5.44911C35.4871 5.7076 34.473 6.04482 33.4272 6.23134C32.8216 6.01945 32.2836 5.71226 31.7006 5.45985C29.4713 4.49607 26.9967 4.4923 24.642 4.91102C24.3986 4.95431 23.7796 5.06048 23.5883 5.01356C21.4005 4.47689 19.2475 4.07051 16.978 4.1493Z" fill="black"/>
<path d="M26.2719 6.13714L26.3157 6.13293C33.6034 5.48543 36.781 11.1474 37.2878 17.6108C35.1003 16.4874 30.9928 15.259 29.4811 18.0048C28.2979 20.1538 28.1108 24.9468 28.7559 27.3409C29.2406 29.14 30.343 31.0666 30.8468 32.9461C27.2691 33.0658 27.793 36.0039 27.715 38.6256C27.6449 40.981 27.6823 43.3399 27.5413 45.6959C27.4376 47.4279 27.0592 49.1929 25.7182 50.4108C24.9414 51.1165 23.8496 51.1533 22.8632 51.0774C22.7179 51.0766 22.5535 51.0445 22.4079 51.0275C20.6208 50.8191 18.9731 50.1441 18.0954 48.4818C17.4596 47.2776 17.4661 46.0463 17.2308 44.7556C16.779 42.2773 16.5986 39.7872 16.3115 37.289C16.197 36.305 16.24 35.3088 15.8629 34.3795C15.4944 33.4714 14.9409 33.275 14.089 32.9374C14.438 32.2758 14.9554 31.814 15.3526 31.1218C15.9177 30.137 16.3987 29.1878 16.9303 28.1741C18.2362 25.6839 19.5781 23.1452 19.843 20.2971C19.9311 19.3495 19.5447 18.0157 18.8905 17.3261C17.642 16.0102 15.5125 16.0613 13.8594 15.9936C14.0426 15.345 14.3002 14.8499 14.5945 14.2543C16.7746 9.8412 21.2672 6.43919 26.2719 6.13714Z" fill="black"/>
<path d="M40.4702 6.23651C40.6241 6.20944 41.402 6.2036 41.5897 6.21086C43.3694 6.27963 44.9164 6.52913 46.4898 7.38505C48.3105 8.37556 49.309 9.98467 49.8822 11.9359C50.329 13.4569 50.4014 15.1847 50.3075 16.7651C50.1968 18.6265 49.7817 20.4465 49.388 22.2582C48.7724 25.1541 48.0013 28.0254 46.9582 30.7953C46.1921 32.8296 45.4576 34.7831 44.1129 36.524C43.5524 37.2496 43.059 37.6675 42.1667 37.9201C40.9683 37.9918 39.75 36.2593 39.0297 35.4289C38.1797 34.4484 37.3196 33.4768 36.4493 32.5143L36.4641 32.5016C37.4084 31.6759 38.6173 29.7306 38.8126 28.4611C39.1957 25.8523 38.587 23.2335 38.7892 20.5546C39.0821 16.6733 37.8139 10.0686 34.6836 7.46483C36.248 6.85631 38.7727 6.37723 40.4702 6.23651Z" fill="black"/>
<path d="M16.5819 5.63518C17.9189 5.5476 19.7484 5.73292 21.089 5.88689C20.1207 6.4563 19.0934 7.09846 18.185 7.7749C15.7263 9.60593 12.5132 13.6865 12.2546 16.8051C12.1392 18.1972 12.549 20.5892 12.547 22.2261C12.5445 24.2241 12.1995 26.2661 12.3554 28.1843C12.3959 28.7174 12.4859 29.2456 12.6241 29.7621C12.8028 30.409 13.3015 31.1259 13.238 31.5771L13.1616 31.6238C13.0025 31.5731 12.941 31.4307 12.8498 31.2849C12.5596 30.8365 12.209 30.1822 11.9399 29.7096C9.76203 25.9028 8.17084 21.7893 7.22005 17.5078C7.00453 16.5256 6.69914 15.1245 6.68449 14.1228C6.65696 12.2405 6.43848 11.0611 7.7529 9.61707C10.3049 6.81352 12.9102 5.82979 16.5819 5.63518Z" fill="black"/>
<path d="M32.449 17.7262C34.2298 17.6677 35.7955 18.4025 37.3602 19.1549C37.3037 20.504 37.2641 21.8097 37.283 23.1656C37.3067 24.8537 37.7395 26.9686 37.2947 28.5836C36.901 30.0125 35.7857 31.3658 34.493 32.0816C33.7523 32.4587 33.1928 32.5561 32.3778 32.6734C32.1181 32.1603 31.6554 30.9949 31.4373 30.4097C31.0629 29.4052 30.057 27.2366 29.992 26.2262C29.8473 23.9755 29.6547 20.2839 30.9627 18.3795C31.2875 17.9072 31.9356 17.7816 32.449 17.7262ZM32.2762 18.5221C30.1851 18.9642 31.0683 20.2525 32.3182 20.2037C33.0662 20.0412 33.2704 19.7713 33.6278 19.1304C33.2133 18.4243 33.0549 18.4698 32.2762 18.5221Z" fill="black"/>
<path d="M13.6074 17.507C14.4611 17.4958 16.5755 17.4923 17.292 17.8927C17.787 18.1733 18.1498 18.6411 18.2979 19.1906C18.8717 21.3779 16.6957 25.7299 15.5967 27.6554C15.248 28.2364 14.5522 29.5604 14.291 30.1935C13.3091 27.3679 14.0586 25.0482 14.0381 22.1427C14.0261 20.4383 13.7511 19.157 13.6074 17.507ZM15.8398 18.1837C14.869 18.2673 14.6169 18.7143 15.5088 19.3683C15.7699 19.5596 16.1968 19.6179 16.5215 19.5363C18.1624 18.8138 16.9472 18.2229 15.8398 18.1837Z" fill="black"/>
<path d="M30.2302 34.4128C30.3391 34.397 30.4735 34.3834 30.5667 34.4467C31.3774 34.9968 32.0774 36.2075 32.8716 36.7548C33.922 37.4789 35.5207 37.5761 36.7556 37.948C36.1868 38.2612 35.9341 38.3305 35.2964 38.4768C33.1087 38.9127 31.3001 38.5139 29.7414 36.9033C28.7898 35.9202 28.9992 34.9591 30.2302 34.4128Z" fill="black"/>
<path d="M13.1622 34.2748C13.216 34.2711 13.2698 34.2683 13.3236 34.2664C14.4842 34.2291 14.7533 35.4031 14.7549 36.3354C13.276 36.8999 10.518 36.531 9.06248 35.9451C8.23092 35.5976 7.47834 35.0954 6.7168 34.6153C8.27127 34.8774 10.3731 35.1183 11.9056 34.7597C12.1937 34.6922 12.8057 34.3994 13.1622 34.2748Z" fill="black"/>
</svg>
