<svg width="57" height="57" viewBox="0 0 57 57" fill="none" xmlns="http://www.w3.org/2000/svg">
<path d="M27.9203 52.8807C27.5051 52.7782 27.017 52.7475 26.5764 52.6761C13.972 50.6279 8.89666 35.2422 17.8944 26.1148C20.8617 23.105 24.7311 21.613 29.0407 21.443L29.0498 52.8807H27.9203Z" fill="black"/>
<path d="M13.3281 3.8093H29.0479L29.05 19.5267L13.3312 19.5274L13.3281 3.8093Z" fill="black"/>
<path d="M37.8213 3.8093H39.8602C39.8943 3.83422 41.7478 4.40786 41.9982 4.51304C45.8462 6.12924 47.7292 10.8084 46.0706 14.6606C45.2515 16.6107 43.6842 18.1506 41.7199 18.9351C35.1789 21.5342 28.859 14.8686 31.7112 8.42297C32.5273 6.59215 34.029 5.15447 35.8936 4.4188C36.5195 4.17687 37.2831 4.02445 37.7884 3.82268L37.8213 3.8093Z" fill="black"/>
</svg>
