<svg width="57" height="57" viewBox="0 0 57 57" fill="none" xmlns="http://www.w3.org/2000/svg">
<path d="M13.7354 2.69368C16.9894 2.50399 20.4337 3.37703 23.5587 4.22102C33.2092 6.82748 42.278 11.966 48.878 19.5501C50.113 20.9693 51.4212 22.5162 52.3575 24.1546C53.4795 26.118 53.7207 28.6383 53.1212 30.806C52.0696 34.6082 46.107 40.3263 43.0392 42.7454C40.9314 44.4101 38.6947 45.9048 36.3497 47.2142C35.6568 47.6538 34.5256 48.1909 33.7677 48.5667C28.634 51.0787 23.1507 52.8012 17.503 53.6771C14.3101 54.1704 11.4694 54.4264 8.71982 52.3714C6.12513 50.4322 5.52863 48.1641 4.88388 45.1859C4.57693 43.7263 4.30589 42.2594 4.07138 40.7865C2.67752 31.5659 3.06479 22.1632 5.21103 13.0882C6.41786 7.95194 7.76446 3.60167 13.7354 2.69368ZM23.9903 10.6947C21.8887 10.1794 19.76 9.686 17.588 9.8636C13.7621 10.5457 12.712 13.3195 11.8604 16.6644C10.007 23.9444 9.82145 31.6026 11.1466 38.9906C11.6454 41.7251 12.0339 44.1645 14.4464 45.8011C16.6738 47.3123 18.9531 46.9022 21.4522 46.4573C26.152 45.621 30.1697 44.1067 34.3526 41.849C38.1689 39.5644 41.2206 37.1764 44.0479 33.6868C44.9474 32.5767 45.8985 31.3859 46.254 29.9779C46.6754 28.2991 46.4046 26.5212 45.502 25.0443C44.8859 24.0216 43.568 22.4271 42.7589 21.5335C37.8342 16.0948 31.079 12.4326 23.9903 10.6947Z" fill="black"/>
</svg>
