<svg width="57" height="57" viewBox="0 0 57 57" fill="none" xmlns="http://www.w3.org/2000/svg">
<path d="M7.24088 4.61694L27.2708 4.60684L33.6626 4.6023C35.7822 4.60212 37.6466 4.56146 39.7622 4.90889C47.139 6.12014 51.9691 12.1198 50.6541 19.6695C49.3265 27.2921 41.8787 30.5593 34.7666 30.0684C33.673 29.9929 32.7037 30.1369 31.5614 29.9215C32.5809 31.0727 33.7995 32.1512 34.921 33.2097L39.4181 37.504L54.2832 51.7582C54.3825 51.8258 54.3581 51.8263 54.4244 51.9484C54.1151 52.102 39.6556 52.1546 38.237 51.9801C37.4301 51.3054 36.2915 50.1021 35.475 49.3358L27.682 41.895L23.2018 37.6803C22.1077 36.6621 20.8318 35.5504 19.9073 34.3904C18.296 32.3687 18.6641 29.6904 21.0468 28.4612C22.0469 27.9453 23.0659 27.7313 24.1269 27.4502L29.1222 26.1301C31.5252 25.4934 33.8435 25.0348 35.5076 22.999C39.0385 18.6796 36.6893 12.6653 31.144 11.9698C29.5567 11.7708 27.7469 11.8589 26.1352 11.8579L17.1618 11.8583L10.3883 11.873C9.54816 11.8762 7.98364 11.8095 7.22124 11.9112C7.19716 9.7927 7.10417 6.68033 7.24088 4.61694Z" fill="black"/>
</svg>
