<svg width="57" height="57" viewBox="0 0 57 57" fill="none" xmlns="http://www.w3.org/2000/svg">
<path d="M25.8017 1.89761C27.1545 1.8746 27.9749 2.3769 28.9209 3.29116C32.4364 2.689 33.7125 5.49617 34.7178 8.26772C35.1397 8.12421 35.564 7.98682 35.9902 7.85659C35.7929 10.9673 35.6829 14.0794 35.5547 17.1935C35.5139 18.182 35.4116 19.1794 35.3721 20.1681C35.342 20.9206 35.364 21.6812 35.331 22.4357L34.0303 49.4308C33.9875 50.2338 34.0149 51.0408 33.9824 51.841C33.9426 52.8195 33.875 53.8144 33.8125 54.7931L19.1299 52.006C15.2557 51.3604 11.3993 50.4909 7.52733 49.8195C6.55351 49.6506 5.81054 49.6513 5.14744 48.88C5.10637 47.3868 5.51025 45.1395 5.70799 43.5685L7.03611 33.2785L8.41404 22.6066C8.58796 21.2263 8.8883 17.9632 9.26463 16.7501C9.78535 16.177 12.9472 15.4187 13.7939 15.0783C14.1726 14.926 16.0211 14.3261 16.3515 14.2853C16.624 13.5072 16.8258 12.6886 17.1094 11.9103C18.4787 8.15263 20.9945 2.78668 25.291 1.92007C25.4608 1.90662 25.6315 1.89918 25.8017 1.89761ZM29.8769 21.4113C28.4543 20.2564 26.1448 20.3164 24.4004 20.4171C24.3966 20.4177 24.3924 20.4185 24.3887 20.4191C21.7805 20.6818 19.4318 21.7074 17.7549 23.7736C15.6519 26.3647 14.8388 30.7529 16.9385 33.5705C17.3174 34.0719 17.7472 34.5331 18.2207 34.9464C19.2436 35.856 21.8044 37.5742 20.4844 39.1857C20.2869 39.4266 20.0263 39.568 19.7148 39.5939C17.955 39.74 15.6382 37.4228 15.039 37.4445C14.9255 37.4487 14.8437 37.529 14.7744 37.6085C14.3501 38.097 13.3959 41.627 13.3379 42.3449C14.648 43.9066 16.9087 45.2313 18.9287 45.4406C21.1214 45.7653 23.1158 45.6274 24.9433 44.2804C28.1377 41.9258 28.9565 36.3542 26.5078 33.2091C25.9745 32.5242 25.3884 31.9525 24.7226 31.4044C23.7562 30.5242 21.9214 29.6506 21.6465 28.3507C21.7599 27.8014 21.9287 27.3711 22.4189 27.0431C23.136 26.5635 24.3381 26.6322 25.1523 26.8029C25.6301 26.9032 27.4728 27.6845 27.7842 27.465C28.2061 27.1632 29.6885 22.2008 29.8769 21.4113ZM25.7099 4.16909C22.4569 5.19211 20.7825 8.99693 19.5703 11.9328C19.3877 12.3751 19.2608 12.9197 19.0547 13.34C19.2898 13.2681 19.7972 13.1278 20.0049 13.0431C20.3813 12.9257 21.499 12.541 21.831 12.4728C23.0367 9.57952 24.4562 6.61732 26.8056 4.47183C26.3596 4.26717 26.197 4.14667 25.7099 4.16909ZM28.1289 6.39858C26.5515 8.06863 25.7844 9.44734 24.789 11.4679C25.0793 11.3845 25.4803 11.2809 25.7568 11.1828L29.0888 10.091C28.9521 8.99274 28.6806 7.43748 28.209 6.4562L28.1289 6.39858ZM30.4219 5.6271C30.5186 6.06731 30.7389 6.60117 30.8545 7.08315C31.0391 7.85318 31.1882 8.6186 31.3467 9.3937L32.0957 9.08511C32.3169 8.99169 32.3342 9.02743 32.4414 8.85952C32.3851 7.9665 31.3017 6.01461 30.4219 5.6271Z" fill="black"/>
<path d="M38.2769 8.14044C39.1257 8.65302 40.3293 10.4108 41.1119 10.7582C42.0058 11.1549 44.2191 10.7729 45.1743 11.3128C45.4131 11.4477 45.9537 11.8852 46.0106 12.1517C46.303 13.52 46.4793 15.009 46.6769 16.3979L47.7917 24.1163L49.8681 38.6053C50.4042 42.2834 50.9343 45.9625 51.4699 49.6406C51.5619 50.3451 51.7213 51.1105 50.8515 51.4175C49.6861 51.8288 48.2447 52.044 47.0241 52.316C46.5818 52.446 45.6235 52.6268 45.1422 52.733L41.2064 53.6044L38.1009 54.2997C37.5256 54.4297 36.7071 54.6461 36.142 54.6941C36.1266 53.9667 36.2445 52.3615 36.2787 51.5671L36.6715 43.7139L37.627 21.0633L38.0829 11.5354C38.131 10.4505 38.28 9.20072 38.2769 8.14044Z" fill="black"/>
</svg>
