<svg width="57" height="57" viewBox="0 0 57 57" fill="none" xmlns="http://www.w3.org/2000/svg">
<path d="M45.6992 4.34497C46.9693 4.89462 47.5664 5.4552 47.6064 6.95142C47.631 7.86936 47.6165 8.78714 47.6143 9.70532L47.6133 14.4055V29.3909L47.6143 42.6135C47.6143 44.8565 47.6131 47.0916 47.6094 49.343C47.6071 50.678 47.2695 51.6201 45.8994 52.1516C45.7437 52.212 45.4534 52.278 45.3271 52.345H44.6123C44.0613 52.144 42.2076 52.1218 41.5879 52.1106C40.3534 52.0881 39.1203 52.0275 37.8867 51.9778L25.6768 51.4084C24.9945 51.3775 24.3125 51.3087 23.6289 51.2825L16.5898 50.9846C15.3759 50.9314 14.1955 50.9402 12.9756 50.8137C11.6478 50.676 10.7894 50.0277 10.5947 48.6409C10.3723 47.0558 10.4496 45.4414 10.375 43.8508L9.88672 30.6418C9.824 29.0171 9.68658 27.4112 9.69434 25.7766C9.69776 25.0606 9.59579 24.244 9.56445 23.5159C9.40138 20.2546 9.29838 16.9899 9.25586 13.7249C9.22143 12.0298 8.99147 10.3343 9.0957 8.62817C9.08928 7.71949 9.99422 6.64308 10.9395 6.50415C12.9388 6.21039 15.1665 6.20931 17.1816 6.07642L32.3271 5.10083C33.9698 4.97946 36.1641 4.94489 37.7441 4.73071C37.5954 5.40344 37.6725 7.01752 37.6221 7.77661C37.5899 8.52951 37.5185 9.28083 37.4824 10.0334C37.4703 10.2866 37.5663 10.5455 37.8281 10.6213C38.136 10.5914 39.8026 9.21184 40.1777 8.91626C40.6385 9.35438 41.6546 10.1682 42.2471 10.4299C42.391 10.4117 42.5233 10.1173 42.5186 10.0256C42.4243 8.22121 42.4754 6.31422 42.335 4.52563H42.3359C42.8782 4.34827 43.9334 4.52956 44.2217 4.34497H45.6992ZM38.1709 18.2395C36.7984 13.6733 32.4264 12.2212 28.0674 12.5208C25.4488 12.7165 22.8618 13.475 21.1045 15.551C19.0463 17.983 18.6843 21.8865 20.1162 24.7063C21.7533 27.9293 25.2881 29.4145 28.2197 31.1897C29.1866 31.7752 30.2192 32.4763 30.835 33.4534C31.6434 34.7879 31.3833 36.9836 29.4893 37.0686C27.3739 37.2433 26.7204 36.1579 26.585 34.2268C26.5636 33.9228 26.6326 32.8615 26.4688 32.6389C24.917 31.9769 20.7072 32.0481 19.0635 32.6311C18.5369 39.7959 22.2187 43.2058 29.3027 43.1516C29.9777 43.1201 30.8516 43.1017 31.5088 42.9924C33.7006 42.6278 35.738 41.7584 37.2432 40.092C38.5827 38.6087 39.2638 36.4661 39.1406 34.4895C38.9829 31.9612 38.0894 29.9306 36.1963 28.217C35.1716 27.2301 33.9878 26.6368 32.8066 25.8899C30.8252 24.6369 27.2375 23.6167 26.9453 20.9065C26.7254 18.8637 29.4296 17.9824 30.7871 19.2063C31.6515 19.9864 31.5173 21.5626 31.6494 22.6301C33.4961 23.1689 37.0265 22.9166 38.7881 22.2454C38.6452 20.7844 38.5974 19.6587 38.1709 18.2395ZM41.9678 4.53052C41.6336 4.54475 41.3408 4.57918 40.9873 4.59692C41.2178 4.58537 41.4226 4.56712 41.6299 4.55103L41.9678 4.53052Z" fill="black"/>
</svg>
