<svg width="57" height="57" viewBox="0 0 57 57" fill="none" xmlns="http://www.w3.org/2000/svg">
<path d="M26.634 4.42451H31.0436C31.4518 4.55333 32.5107 4.62042 32.9781 4.66588C33.5248 4.72285 34.0695 4.79877 34.6109 4.89349C37.8618 5.43999 40.3126 6.21514 43.2893 7.55015L42.1777 14.4891C41.9661 15.7938 41.7639 17.2265 41.5208 18.5136C38.0719 16.877 34.4437 15.57 30.6038 15.3266C29.4795 15.2554 28.3767 15.241 27.2923 15.5875C26.0039 15.9993 25.2468 17.3069 25.7384 18.6246C26.2888 20.0997 28.1203 20.883 29.4444 21.523C31.0336 22.2414 32.7972 22.8283 34.4279 23.4809C38.5448 25.1176 42.9191 27.5599 44.5379 31.9665C45.8761 35.609 45.67 40.3569 44.1112 43.8903C42.0746 48.5071 37.5815 51.0185 32.8099 51.8618C32.1923 51.9711 30.4751 52.073 30.0127 52.2655H25.5511C25.2019 52.1417 22.5832 51.9034 21.9899 51.7983C18.3321 51.1521 14.5212 50.1147 11.2656 48.2916C11.4944 47.2072 11.696 45.6641 11.877 44.5454L13.0553 37.2511C14.1424 37.811 15.4025 38.4884 16.6039 38.9561C20.4939 40.4243 25.2133 42.064 29.3912 41.1076C31.0352 40.7313 32.1428 38.9579 31.5253 37.4123C30.5296 34.9202 25.9721 33.6552 23.671 32.7717C22.5013 32.3288 21.3538 31.8294 20.2326 31.2753C15.182 28.7536 12.1852 25.4934 11.9286 19.5908C11.5971 11.9644 15.9597 6.62888 23.3063 4.99379C23.8431 4.87037 24.3847 4.76886 24.9298 4.68952C25.3604 4.63047 26.2682 4.5566 26.634 4.42451Z" fill="black"/>
</svg>
