<svg width="57" height="57" viewBox="0 0 57 57" fill="none" xmlns="http://www.w3.org/2000/svg">
<path d="M25.4785 2.82297H26.4046C27.023 3.16174 27.8385 3.50318 28.0123 4.33172C28.2492 5.46108 28.1602 7.18093 28.1613 8.38358L28.1758 16.5085C28.18 17.8344 28.1752 19.1651 28.2059 20.4868C28.2185 21.0264 28.5319 21.043 28.9943 21.046C30.6947 21.0573 32.4732 21.0486 34.1666 21.0498L44.7372 21.0506C46.2376 21.049 49.0282 20.8824 50.3618 21.297C52.6843 22.0192 53.9071 25.4037 52.6963 27.5099C52.0109 28.7019 51.0316 29.7824 50.1798 30.8468L45.8692 36.2669L37.2707 47.0698L34.2288 50.9179C33.6254 51.6805 33.0155 52.4457 32.3888 53.1911C32.0098 53.6417 31.7095 53.6103 31.338 53.867H30.3983C30.3184 53.8107 30.0683 53.71 29.9709 53.6696C29.0784 53.2963 28.6073 52.6365 28.5806 51.658C28.5375 50.0804 28.5476 48.4955 28.5365 46.9148L28.4245 39.1873C28.4169 38.5399 28.4481 36.2624 28.2359 35.7904C27.8948 35.5864 13.3197 35.746 11.6948 35.6931C10.5622 35.6562 7.84355 35.8324 6.64801 35.5564C5.64064 35.3238 4.52861 34.3478 4.05941 33.4778C3.49881 32.4382 3.35411 31.0522 3.70754 29.92C3.87389 29.3871 4.16704 28.8575 4.50426 28.4178C5.7391 26.8076 7.04657 25.2231 8.30379 23.6326L16.0827 13.8129L21.9804 6.36832C22.7177 5.45496 23.4219 4.48561 24.1968 3.59745C24.6684 3.05695 24.8912 3.14962 25.4379 2.84578L25.4785 2.82297Z" fill="black"/>
</svg>
