<svg width="57" height="57" viewBox="0 0 57 57" fill="none" xmlns="http://www.w3.org/2000/svg">
<path d="M34.6793 4.7704C36.4548 6.05242 37.9723 7.02485 39.6921 8.4948C45.4334 13.402 50.175 19.4717 51.5144 27.0881C52.0757 30.2806 51.9657 35.0028 50.6257 37.959C52.3193 39.6001 54.1774 43.0741 54.8271 45.3346C54.9554 45.7826 55.2137 47.2659 55.2779 47.3942V49.6775C55.1943 49.8564 55.1627 50.1334 55.1201 50.3375C54.9849 50.9917 54.9118 51.3327 54.5888 51.9045C54.2695 51.3609 53.6834 50.6687 53.2408 50.2272C50.651 47.6438 47.7201 46.6165 44.2287 48.0536C42.3848 48.8125 40.635 49.8502 38.7675 50.5756C36.3736 51.5055 33.9053 51.905 31.3448 51.9181C22.5264 52.0012 14.0106 48.7061 7.54493 42.7091C6.89283 42.1159 6.03089 41.2343 5.40731 40.5915C4.50229 39.6428 3.65596 38.6399 2.87303 37.5882C2.49489 37.0707 1.82151 35.9584 1.41016 35.571V35.516C1.73796 35.5251 3.11893 36.4265 3.50009 36.6517C11.9098 41.6204 22.7327 43.7638 31.6943 38.9287C31.7241 38.9126 31.7568 38.8561 31.7738 38.8285C29.0919 37.2123 26.3132 34.546 24.0917 32.3237C18.184 26.4138 12.7562 19.9679 7.53056 13.4521C7.36012 13.2396 6.8215 12.5869 6.77242 12.3497C7.11803 12.5094 7.83667 13.2229 8.24126 13.4369C8.40518 13.5235 8.66873 13.8682 8.83812 13.9789C9.70779 14.6253 10.5303 15.3372 11.371 16.0057C15.6316 19.3938 19.9916 22.7086 24.5175 25.7362C25.2193 26.2057 27.2756 27.556 27.9565 27.8665C25.9602 26.1191 24.1883 23.9247 22.5271 21.8564C20.2569 19.013 18.054 16.1167 15.9201 13.1697C15.3455 12.3842 13.7039 10.253 13.3973 9.51834C13.8373 9.87974 14.1463 10.2588 14.5468 10.6212C15.1623 11.1778 15.7842 11.7894 16.4041 12.3311C19.3064 14.8302 22.2609 17.2679 25.2657 19.6426C28.0957 21.8415 30.9556 24.0017 33.8446 26.1225L36.9157 28.3478C37.6818 28.8957 38.6018 29.5241 39.3221 30.1197C39.4501 29.5438 39.6674 28.9605 39.8302 28.387C40.1141 27.3956 40.3289 26.3857 40.4729 25.3646C41.3498 19.004 39.4042 12.3418 36.0507 6.92495C35.6039 6.20341 35.0938 5.51467 34.6793 4.7704Z" fill="black"/>
</svg>
