<svg width="57" height="57" viewBox="0 0 57 57" fill="none" xmlns="http://www.w3.org/2000/svg">
<g clip-path="url(#clip0_3391_1409)">
<path d="M5.02056 2.00879C5.3849 2.02682 7.48742 2.66558 8.01367 2.81773L14.2524 4.60598L40.6933 12.2239L50.5633 15.0625C51.3279 15.2821 56.266 16.6147 56.6138 16.9422C56.8161 17.3115 56.5733 17.5746 56.3328 17.8388C55.5377 18.712 54.6526 19.4679 53.7962 20.2755L50.207 23.7188L37.671 35.8454C36.5968 36.7791 35.7402 37.6785 34.7277 38.6684L31.3819 41.8856L22.9184 49.9685C22.2671 50.5909 18.2528 54.7043 17.7276 54.681C17.3041 54.4161 17.1562 53.6284 17.0438 53.1682C16.5709 51.2309 16.1006 49.2928 15.6253 47.3561L12.3987 34.2836L7.24197 13.4033C6.42887 10.0993 5.58751 6.79809 4.7882 3.49053C4.71372 3.18219 4.613 2.71499 4.66086 2.40229C4.68898 2.21882 4.86802 2.11706 5.02056 2.00879ZM22.563 48.7367C23.3073 47.9942 24.0588 47.2359 24.8173 46.5094C25.377 45.9734 25.9959 45.4902 26.5359 44.9229C24.3609 44.3257 22.1906 43.7109 20.0255 43.0786C18.598 42.6689 16.8929 42.223 15.5017 41.7617C15.761 43.5256 16.5916 46.2141 17.0046 48.0589C17.2272 49.0528 17.8647 51.7986 18.1724 52.6374L18.286 52.7029C18.9064 52.4312 20.7306 50.4065 21.3647 49.8317C21.6541 49.5695 22.2725 49.0166 22.563 48.7367ZM12.7211 28.0831C14.2248 28.447 15.7474 28.9536 17.243 29.3688L21.4202 30.5705C21.9964 30.7363 23.0247 30.997 23.553 31.2007C22.6034 27.6794 21.8626 24.0461 20.9307 20.5149C20.895 20.3797 20.8497 20.3474 20.7422 20.2804C20.1044 20.8558 19.5255 21.4676 18.9083 22.0637L15.4789 25.3589C14.5959 26.2161 13.4535 27.1324 12.7211 28.0831ZM41.4907 30.4685C42.803 29.2045 44.0155 28.1092 45.3146 26.7884L45.3158 26.7097C45.0443 26.5174 35.278 23.6672 34.5948 23.5754C34.8447 24.4228 35.0666 25.4764 35.2815 26.3514L36.6242 31.8107C36.7109 32.1638 37.2097 34.2327 37.3232 34.4097C37.6813 34.1874 38.381 33.4632 38.7216 33.1503C39.6221 32.3228 40.6625 31.3684 41.4907 30.4685ZM25.3387 31.7327C26.9033 32.0912 28.4025 32.6212 29.9388 33.0139C31.9948 33.6358 34.1547 34.1871 36.1825 34.8343C35.184 31.3156 34.4862 27.6438 33.5101 24.1135C33.4908 24.0436 33.3967 23.9659 33.3409 23.9231C31.6476 25.6092 29.8831 27.2141 28.1971 28.914C27.2482 29.8708 26.1984 30.648 25.3387 31.7327ZM16.0679 23.0895C17.1505 22.1586 19.1884 19.9513 20.0593 19.393C18.8182 18.961 17.3741 18.5788 16.0993 18.2116L9.16643 16.2139C9.35153 17.1046 11.568 26.4984 11.8681 26.9852L11.9715 27.0217C13.2318 26.0089 14.9117 24.252 16.0679 23.0895ZM12.7765 10.4855C13.9775 9.28584 15.5788 7.75827 16.8398 6.58917C14.4003 5.86311 11.9551 5.15619 9.50446 4.46835C8.86082 4.28072 6.45907 3.5238 5.98725 3.46188C6.39254 4.87025 8.35378 13.8115 8.79044 14.2296C8.95575 14.2131 12.4721 10.8111 12.7765 10.4855ZM46.8146 25.4017C48.1645 24.0573 49.6838 22.6936 50.9708 21.3714C51.7879 20.5455 52.5736 19.8073 53.4419 19.0354C53.9655 18.5698 54.4475 18.0122 54.9959 17.5635C52.6404 16.8703 50.2812 16.1891 47.9186 15.5201C46.7982 15.1991 45.2613 14.8039 44.182 14.416C44.2682 15.1836 44.4734 15.9313 44.655 16.6805C45.3605 19.5899 46.1271 22.4884 46.8146 25.4017ZM34.1146 21.5672C35.2767 20.3704 36.5835 19.3247 37.7229 18.0986C37.8941 17.9144 38.0912 17.7308 38.2695 17.5515C38.6516 17.1748 39.0286 16.82 39.431 16.4656C40.3552 15.6514 41.1844 14.7088 42.099 13.8873C40.9597 13.4938 32.1251 10.8354 31.4326 10.8538C31.6899 11.6299 31.8886 12.6151 32.0881 13.4298L33.4017 18.7436C33.599 19.5414 33.8719 20.8069 34.1146 21.5672ZM15.9079 40.6549C17.4776 41.1519 19.0864 41.5523 20.6343 42.0414L24.2112 43.0526C24.9653 43.2673 25.8762 43.4946 26.588 43.7902C26.503 42.9795 24.1099 33.2712 23.9772 33.1384L23.8634 33.1146C22.2829 34.3749 20.8465 36.1332 19.2672 37.4732C18.1005 38.4631 17.1893 39.6996 15.9079 40.6549ZM22.0084 19.8683C22.3375 21.748 23.0485 24.1875 23.501 26.0983C23.7861 27.302 24.3086 29.6366 24.6789 30.7173C25.2324 29.9669 25.8769 29.5098 26.5372 28.8733C27.2299 28.2055 27.9324 27.5058 28.5977 26.8099C30.004 25.5223 31.3009 24.3284 32.6207 22.9302C31.8424 22.737 31.0194 22.4986 30.2515 22.2636C27.5275 21.4298 24.7187 20.7352 22.0084 19.8683ZM25.4736 14.0502C26.7855 12.7456 28.1408 11.5585 29.4808 10.2098C26.9751 9.54555 24.4527 8.72476 21.9532 8.03849C21.3112 7.86224 19.4296 7.25611 18.8766 7.16353C19.0669 8.18016 21.2808 17.5229 21.5892 17.7874C22.0637 17.3866 22.618 16.8063 23.077 16.3635C23.7146 15.7484 24.9475 14.6981 25.4736 14.0502ZM17.5254 7.59121C14.9831 10.0856 12.3005 12.6846 9.69951 15.1132C10.8158 15.5482 13.02 16.1107 14.2461 16.47C16.006 16.9683 18.6618 17.6453 20.3468 18.2296L18.2978 9.92251C18.204 9.53865 17.8377 7.75827 17.6609 7.60182L17.5254 7.59121ZM27.802 43.6031C29.2836 42.2833 30.4765 40.982 31.8563 39.7269C33.3003 38.5199 34.476 37.0958 35.8568 35.9387C33.5425 35.2861 31.2318 34.6206 28.9249 33.9424C28.0383 33.6851 25.9832 33.0445 25.162 32.9383C25.1976 33.1103 25.2566 33.2486 25.2925 33.404C26.0642 36.7464 27.0999 40.2611 27.802 43.6031ZM12.3761 29.217C12.6254 30.5503 13.0762 32.1851 13.4075 33.5216L15.0363 40.0562C15.862 39.082 17.02 38.0466 17.9327 37.1305C18.2584 36.8035 18.7228 36.4497 19.0285 36.1328C19.7761 35.3831 20.5298 34.6188 21.2913 33.8847C21.8749 33.3221 22.4814 32.8649 23.0295 32.2497L15.8824 30.1848C15.1845 29.982 13.0159 29.3062 12.3761 29.217ZM22.3404 18.7382C23.7601 19.2213 25.3634 19.6286 26.8135 20.0579C28.8434 20.6374 30.9559 21.2101 32.9683 21.8285C32.603 20.5745 32.2501 18.791 31.916 17.5927C31.6846 16.7627 30.5134 11.4605 30.2073 11.1649C28.3647 13.006 26.2842 14.9115 24.3912 16.7242C23.7062 17.38 23.0365 18.1137 22.3404 18.7382ZM42.8741 14.8101C40.2082 17.3037 37.5774 19.8345 34.9821 22.4016C36.2727 22.8619 38.1933 23.3565 39.5443 23.7463C41.5286 24.3118 43.6282 24.9572 45.6108 25.4699C45.0348 23.0336 44.4416 20.6013 43.8314 18.1734C43.5793 17.1537 43.3177 16.0714 43.0649 15.0464C43.0318 14.9124 42.9718 14.8726 42.8741 14.8101Z" fill="black" fill-opacity="0.988235"/>
</g>
<defs>
<clipPath id="clip0_3391_1409">
<rect width="56.69" height="56.69" fill="white"/>
</clipPath>
</defs>
</svg>
