<svg width="57" height="57" viewBox="0 0 57 57" fill="none" xmlns="http://www.w3.org/2000/svg">
<path d="M31.8068 5.17137C31.8364 5.16956 31.8661 5.16891 31.8957 5.16942C33.2685 5.19096 33.0591 6.27309 33.0169 7.26421C32.9868 7.96892 32.9466 8.67753 32.9104 9.38213L32.5794 15.9167C33.1716 16.0877 34.0683 16.2527 34.6798 16.3818L38.3793 17.1629C39.0865 17.3123 39.7578 17.4412 40.4564 17.6492C41.0537 17.827 41.4744 18.4137 41.1519 19.0056C40.751 19.7412 40.1723 20.503 39.6884 21.2016L36.6085 25.6465L31.4985 33.0329C30.6449 34.268 29.7947 35.5367 28.9141 36.7523C28.722 37.0175 28.518 37.1211 28.2182 37.2325C28.1864 37.2334 28.1545 37.2338 28.1227 37.2337C27.6574 37.2312 27.0641 36.9034 27.045 36.3953C27.0082 35.4154 27.1084 34.396 27.1568 33.4122C27.2853 31.0946 27.3945 28.7761 27.4842 26.4567C25.6574 25.965 23.6822 25.6941 21.8356 25.2466C20.9928 25.0423 19.8702 24.9656 19.1374 24.5067C18.8014 24.2962 18.7504 23.6443 18.9465 23.3239C19.4143 22.5434 19.998 21.7393 20.5113 20.9971L23.8266 16.2071L28.7139 9.13795C29.5282 7.95939 30.352 6.74688 31.1903 5.58401C31.3564 5.35368 31.5461 5.26357 31.8068 5.17137Z" fill="black"/>
<path d="M2.94531 25.5224C3.45632 24.6718 3.65633 24.0128 4.76648 23.7135C6.44607 23.2606 7.56305 24.7877 8.58427 25.8104L11.6724 28.9005L24.4147 41.6334L26.8896 44.1096C27.2255 44.4453 28.0433 45.2981 28.3862 45.5097L42.9344 30.9618L47.4723 26.4219C48.2273 25.6667 48.9823 24.8701 49.7794 24.173C50.6991 23.3686 52.1861 23.5085 53.0132 24.3825C53.4285 24.8214 53.5014 25.0861 53.745 25.607V26.591C53.5763 26.9757 53.3957 27.4425 53.1065 27.742C51.9807 28.9063 50.8078 30.0601 49.6629 31.2031L42.9652 37.8978L34.4295 46.4332C33.0049 47.8582 31.5869 49.2899 30.1506 50.7078C29.3819 51.4667 28.3843 51.7615 27.3559 51.3013C26.9084 51.101 26.7007 50.8924 26.3671 50.5586C25.0871 49.278 23.8065 47.9978 22.5261 46.7175L14.339 38.5296L7.18347 31.3724C6.01723 30.206 4.83254 29.038 3.67511 27.8616C3.16283 27.341 3.2425 27.1361 2.94531 26.6834V25.5224Z" fill="black"/>
</svg>
