<svg width="57" height="57" viewBox="0 0 57 57" fill="none" xmlns="http://www.w3.org/2000/svg">
<path d="M40.2031 8.30518C41.3345 8.16405 42.6331 9.14047 42.4023 10.2085C42.1045 11.5849 41.422 13.4159 40.9297 14.7397C41.7298 14.4172 44.1164 13.7096 44.9297 13.9272C45.4438 14.0657 45.8811 14.4085 46.1426 14.8774C46.6019 15.7107 46.2658 16.3968 45.8516 17.1392C45.5821 17.622 45.3025 18.1174 45.0439 18.606L42.2217 23.9976L33.7617 40.1118C32.53 42.4463 31.2926 44.779 30.0674 47.1177C29.6032 48.0038 28.7988 48.6246 27.7734 48.3208C26.6176 47.9783 26.2966 46.7235 25.7881 45.7642L22.9717 40.4136C22.0136 38.6633 21.0931 36.8386 20.1611 35.0688L14.4766 24.23L11.623 18.8257C11.0743 17.7673 10.0532 16.3955 10.3965 15.1626C10.5284 14.6916 10.8393 14.2925 11.2607 14.0522C11.5984 13.864 11.9869 13.79 12.3691 13.8403C13.0943 13.9294 14.8419 14.5172 15.6895 14.7261C19.554 15.6903 23.4061 16.7066 27.2441 17.7739C27.6871 16.5504 27.8594 15.0055 28.2539 13.7212C28.5417 12.7845 28.6425 11.1442 29.7041 10.7036C30.1442 10.521 30.8342 10.4096 31.3096 10.3091C31.8513 10.1937 32.3914 10.0705 32.9297 9.93994L37.542 8.88916C38.4062 8.69458 39.3378 8.45832 40.2031 8.30518ZM40.4521 10.1733C39.7928 10.4197 38.5617 10.6317 37.8369 10.7964C36.4204 11.1183 35.025 11.4653 33.6143 11.8101C32.554 12.0691 31.5208 12.1855 30.4688 12.5464C30.2439 14.0578 29.5874 16.0367 29.2539 17.5659C28.8376 19.4753 28.3297 21.3904 27.8389 23.2827C27.6693 23.9363 27.527 24.898 27.3438 25.4829C27.9955 25.2249 29.0775 25.0237 29.7988 24.8589L33.4551 23.9937C33.0747 25.975 32.629 27.7459 32.166 29.7065L30.7158 35.9517L29.3154 41.8267C29.0294 43.059 28.7795 44.3099 28.4873 45.5415C28.4214 45.8193 28.3134 46.0557 28.2393 46.311C28.417 46.1174 28.5165 46.0119 28.6631 45.7896C28.8758 45.402 29.0211 45.0297 29.2178 44.645L30.8369 41.5288L38.0059 27.8657L42.2471 19.814L43.7246 17.0249C43.9162 16.6619 44.2366 16.131 44.3906 15.77C42.9848 16.3434 41.2856 16.5982 39.8311 17.063C39.262 17.2447 38.5185 17.3203 37.9736 17.564C38.4321 16.1424 38.9086 14.7267 39.4014 13.3169C39.5277 12.9636 40.5146 10.3217 40.4521 10.1733Z" fill="black"/>
</svg>
