<svg width="57" height="57" viewBox="0 0 57 57" fill="none" xmlns="http://www.w3.org/2000/svg">
<path d="M46.2767 13.7354C47.0936 13.7349 49.8003 13.6815 50.5277 13.7852C51.6364 13.94 52.6649 14.4515 53.4564 15.2432C54.5704 16.3534 54.8247 17.5474 54.8148 19.0703C54.8064 20.4207 54.8152 21.781 54.8158 23.1319V34.6114C54.8086 36.1921 54.6988 37.3788 53.3783 38.6895C52.7551 39.3002 51.9778 39.7306 51.1292 39.9336C50.1916 40.167 48.545 40.0994 47.5267 40.0987L42.9701 40.0948L37.7279 40.0918C36.6804 40.0912 35.5376 40.0687 34.4974 40.1162C35.1927 41.8252 36.0191 43.6568 36.6585 45.3672C35.3319 44.6524 27.7271 40.2284 27.0589 40.1309C26.4037 40.0357 25.714 40.0859 25.0531 40.0899L22.0443 40.0948L10.5404 40.0957C9.41833 40.0959 6.81285 40.1644 5.83822 39.9854C5.08387 39.8487 4.37489 39.5261 3.77572 39.0479C1.53032 37.2578 1.89673 35.0431 1.89779 32.4619L1.90072 26.5879L1.89779 21.0362C1.89714 20.0415 1.82225 18.7739 1.97592 17.8155C2.34287 15.5281 4.21486 13.9855 6.43197 13.7608C6.93861 13.7466 7.44567 13.7394 7.95248 13.7393L37.5619 13.7373L46.2767 13.7354ZM24.556 16.6875C22.5117 17.2473 21.9135 21.4979 21.3763 23.251C21.1933 23.8498 20.4018 29.2962 20.4378 29.2539C20.2642 29.094 20.0322 28.3013 19.9515 28.0537C19.5815 26.9322 19.2527 25.7968 18.9652 24.6514C18.6727 23.4848 18.5754 22.126 18.0589 21.0567C17.6121 20.132 16.202 20.0244 15.5628 20.835C14.6883 21.9445 14.1459 23.3775 13.4388 24.6045C12.4081 26.5768 11.3264 28.5667 10.3499 30.5518C9.35486 26.6856 8.75715 22.7078 8.09603 18.7784C7.92076 17.7375 6.78998 17.4132 5.87631 17.6534C3.86913 18.1812 4.70468 20.5269 4.93978 21.9971C5.1755 23.4716 5.41905 25.0519 5.73959 26.5C6.13172 28.6299 7.53558 36.3367 9.03646 37.3535C9.27691 37.5164 9.54548 37.5727 9.82943 37.5088C10.8199 37.2861 11.7019 35.8688 12.1888 35.0713C12.905 33.8983 13.4662 32.6353 14.0736 31.4043C14.6941 30.1467 15.3539 28.9078 15.971 27.6485C16.9095 30.6311 18.0129 33.5966 20.056 36.0186C20.4757 36.5161 20.9245 37.0465 21.5111 37.3535C21.8983 37.5562 22.3221 37.6292 22.7454 37.4981C23.1335 37.3778 23.42 37.0935 23.6009 36.7354C24.0109 35.9236 23.8096 33.1781 23.8734 32.0918C24.0485 29.1123 24.5854 25.5526 25.3451 22.6748C25.5282 21.9809 25.7275 21.2612 25.9945 20.5948C26.2346 19.9953 26.6194 19.4025 26.7415 18.7657C26.794 18.4918 26.763 18.2192 26.6742 17.9561C26.5142 17.4829 26.1463 17.1042 25.7015 16.8868C25.3192 16.6999 24.9764 16.6576 24.556 16.6875ZM46.2943 19.0078C44.4337 19.1828 43.4602 19.7815 42.2191 21.1739C38.6123 25.2204 38.4262 35.4118 45.7982 35.1993C47.574 34.9826 48.7393 34.3585 49.8831 32.8926C52.4985 29.5404 53.4287 23.1447 49.846 20.1114C49.0558 19.4424 47.3254 18.9006 46.2943 19.0078ZM32.8656 19.0078C31.6228 19.1224 30.8018 19.3856 29.7933 20.1534C25.1399 23.6962 24.4527 35.4085 32.3265 35.1993C34.0732 34.9989 35.249 34.3818 36.3812 32.9541C39.035 29.6072 39.9871 23.1668 36.39 20.1143C35.5734 19.4217 33.9323 18.9337 32.8656 19.0078ZM32.9095 22.6631C35.8672 22.4683 35.9595 30.0525 32.1029 31.4698C30.7698 31.5372 30.4913 30.5418 30.1253 29.4864C29.4305 27.4812 30.6555 23.2332 32.9095 22.6631ZM47.0247 22.669C48.9781 23.7652 48.7519 27.2573 47.9788 28.9932C47.4618 30.154 46.8477 30.9519 45.6663 31.4453C44.5711 31.5985 44.0684 30.8872 43.7415 29.9424C43.1941 28.3599 43.3649 26.487 44.1165 24.9991C44.6193 24.0039 45.2231 23.043 46.3245 22.667C46.5255 22.6539 46.8168 22.6663 47.0247 22.669Z" fill="black"/>
</svg>
