<svg width="57" height="57" viewBox="0 0 57 57" fill="none" xmlns="http://www.w3.org/2000/svg">
<path d="M30.248 2.71417C31.702 3.26135 33.0746 3.70315 34.2363 4.79816C35.0177 5.53463 35.7709 6.32584 36.5361 7.08136L42.8018 13.3782L49.1709 19.7444C50.5274 21.1035 52.4028 22.6666 53.2012 24.4359C53.516 25.1184 53.7753 25.8257 53.9766 26.5501V30.1146C53.1105 33.1301 52.2925 33.8472 50.1943 35.9407L46.124 39.9915L39.5166 46.5892L36.6221 49.4798C34.8603 51.2593 33.4483 53.0022 30.9727 53.681C30.8448 53.716 30.2354 53.9203 30.1494 53.9759H26.5557C26.3581 53.8608 25.9151 53.7229 25.6855 53.6448C24.9027 53.3786 24.1802 53.1315 23.5 52.6468C22.3259 51.8094 21.3973 50.8293 20.3867 49.8138L17.8389 47.2591L9.80566 39.2171C8.69754 38.1046 7.58346 36.9977 6.46289 35.8978C5.70907 35.1475 4.93489 34.4055 4.2793 33.5657C3.59532 32.6896 3.22861 31.6212 2.88867 30.5775C2.84 30.428 2.79137 30.2807 2.71484 30.1429V26.6575C2.87208 26.238 3.01355 25.6992 3.1875 25.2308C3.53917 24.272 4.05716 23.3826 4.71777 22.6038C5.34134 21.8655 6.35588 20.9292 7.0752 20.1976C9.27818 17.9567 11.5372 15.755 13.7559 13.5267L19.96 7.2962C20.9146 6.35116 21.8929 5.31219 22.9131 4.44952C24.0197 3.51384 25.2335 3.27172 26.4521 2.71417H30.248ZM36.4053 16.097C35.8233 17.1174 34.9815 18.3351 34.3301 19.3353L31.1748 24.2034C29.3243 27.0273 27.4218 30.1287 25.5244 32.8939C24.7039 31.5547 23.8984 30.2063 23.1084 28.8489C22.6791 28.1223 22.1719 27.2155 21.6895 26.5423C19.9981 26.5269 18.3066 26.5248 16.6152 26.5364C15.706 26.5376 14.6855 26.5574 13.7881 26.4944C15.9244 29.5888 18.065 32.9699 20.1465 36.1263L23.7158 41.5482C24.3006 42.435 24.9883 43.4122 25.5342 44.3079L40.7266 20.2806C40.2672 19.8254 36.5804 16.1455 36.4053 16.097Z" fill="black"/>
</svg>
