<svg xmlns="http://www.w3.org/2000/svg" xmlns:xlink="http://www.w3.org/1999/xlink" id="Layer_1" x="0px" y="0px" viewBox="0 0 100.2 100.2" style="enable-background:new 0 0 100.2 100.2;" xml:space="preserve">
<style type="text/css">
	.st0{fill:#2FB24B;}
</style>
<title>Comunidad</title>
<circle cx="50.1" cy="29.9" r="4.9"></circle>
<path d="M50.1,25.9c2.2,0,4,1.8,4,4s-1.8,4-4,4s-4-1.8-4-4S47.9,25.9,50.1,25.9 M50.1,24c-3.2,0-5.9,2.6-5.9,5.9s2.6,5.9,5.9,5.9  c3.2,0,5.9-2.6,5.9-5.9C56,26.6,53.4,24,50.1,24C50.1,24,50.1,24,50.1,24L50.1,24z"></path>
<rect x="43" y="38.5" width="14.2" height="7.1"></rect>
<path d="M56.3,39.5v5.2H43.9v-5.2H56.3 M58.2,37.6H42.1v8.9h16.1C58.2,46.5,58.2,37.6,58.2,37.6z"></path>
<path d="M32.1,25.9c2.2,0,4,1.8,4,4s-1.8,4-4,4s-4-1.8-4-4S29.9,25.9,32.1,25.9 M32.1,24c-3.2,0-5.9,2.6-5.9,5.9s2.6,5.9,5.9,5.9  c3.2,0,5.9-2.6,5.9-5.9l0,0C38,26.6,35.4,24,32.1,24C32.1,24,32.1,24,32.1,24L32.1,24z"></path>
<path d="M38.3,39.5v5.2H26v-5.2H38.3 M40.2,37.6H24.1v8.9h16.1V37.6z"></path>
<path d="M68.1,25.9c2.2,0,4,1.8,4,4s-1.8,4-4,4s-4-1.8-4-4S65.9,25.9,68.1,25.9 M68.1,24c-3.2,0-5.9,2.7-5.8,5.9  c0,3.2,2.7,5.9,5.9,5.8c3.2,0,5.8-2.6,5.8-5.9C74,26.6,71.4,24,68.1,24C68.1,24,68.1,24,68.1,24L68.1,24z"></path>
<path d="M74.3,39.5v5.2H61.9v-5.2H74.3 M76.2,37.6H60v8.9h16.1C76.2,46.5,76.2,37.6,76.2,37.6z"></path>
<path d="M50.1,53.7c2.2,0,4,1.8,4,4s-1.8,4-4,4s-4-1.8-4-4S47.9,53.7,50.1,53.7 M50.1,51.8c-3.2,0-5.9,2.6-5.8,5.9s2.6,5.9,5.9,5.8  c3.2,0,5.8-2.6,5.8-5.9C56,54.5,53.4,51.8,50.1,51.8L50.1,51.8L50.1,51.8z"></path>
<path d="M56.3,67.3v5.2H43.9v-5.2H56.3 M58.2,65.4H42.1v8.9h16.1C58.2,74.3,58.2,65.4,58.2,65.4z"></path>
<circle cx="32.1" cy="57.7" r="4.9"></circle>
<path d="M32.1,53.7c2.2,0,4,1.8,4,4s-1.8,4-4,4s-4-1.8-4-4S29.9,53.7,32.1,53.7 M32.1,51.8c-3.2,0-5.9,2.6-5.8,5.9  c0,3.2,2.6,5.9,5.9,5.8c3.2,0,5.8-2.6,5.9-5.9C38,54.5,35.4,51.8,32.1,51.8L32.1,51.8L32.1,51.8z"></path>
<rect x="25" y="66.3" width="14.2" height="7.1"></rect>
<path d="M38.3,67.3v5.2H26v-5.2H38.3 M40.2,65.4H24.1v8.9h16.1V65.4z"></path>
<path d="M68.1,62.6c-2.7,0-4.9-2.2-5-4.9c0-2.7,2.2-4.9,4.9-5c2.7,0,4.9,2.2,5,4.9c0,0,0,0,0,0C73,60.4,70.8,62.6,68.1,62.6z"></path>
<path d="M68.1,53.7c2.2,0,4,1.8,4,4s-1.8,4-4,4s-4-1.8-4-4S65.9,53.7,68.1,53.7 M68.1,51.8c-3.2,0-5.8,2.7-5.8,5.9s2.7,5.8,5.9,5.8  c3.2,0,5.8-2.6,5.8-5.9C74,54.5,71.4,51.8,68.1,51.8C68.1,51.8,68.1,51.8,68.1,51.8L68.1,51.8z"></path>
<rect x="61" y="66.3" width="14.2" height="7.1"></rect>
<path d="M74.3,67.3v5.2H61.9v-5.2H74.3 M76.2,65.4H60v8.9h16.1C76.2,74.3,76.2,65.4,76.2,65.4z"></path>
<rect x="60" y="46.5" class="st0" width="16.1" height="1.9"></rect>
<rect x="42.1" y="46.5" class="st0" width="16.1" height="1.9"></rect>
<rect x="24.1" y="46.5" class="st0" width="16.1" height="1.9"></rect>
<rect x="60" y="74.3" class="st0" width="16.1" height="1.9"></rect>
<rect x="42.1" y="74.3" class="st0" width="16.1" height="1.9"></rect>
<rect x="24.1" y="74.3" class="st0" width="16.1" height="1.9"></rect>
</svg>