<svg xmlns="http://www.w3.org/2000/svg" xmlns:xlink="http://www.w3.org/1999/xlink" id="Layer_1" x="0px" y="0px" viewBox="0 0 100.2 100.2" style="enable-background:new 0 0 100.2 100.2;" xml:space="preserve">
<style type="text/css">
	.st0{fill:#2FB24B;}
</style>
<title>Pasión</title>
<path d="M59,27.1v-0.9c-5.8,0-10.9,3.7-12.5,9.3l0.9,0.3l0.9-0.3c-1.7-5.5-6.8-9.3-12.5-9.3c-7,0-13.7,6.3-13.7,15  c0.2,3.5,1.3,6.9,3.2,9.8c3.1,4.8,6.9,9.1,11.3,12.6c1.8,1.5,3.7,2.9,5.7,4.3c1.3,0.9,2.7,1.6,4.2,2.2l0.3-0.9L46.4,70l0.4,0.1  l0.2-0.9l-0.2,0.9c0.2,0,0.4,0.1,0.6,0.1h0.2l-0.1-0.9l-0.1,0.9h0.2c0.2,0,0.4,0,0.6-0.1l-0.2-0.9l0.2,0.9l0.4-0.1l-0.3-0.9l0.3,0.9  c0.9-0.3,1.7-0.7,2.5-1.2c5-3,9.5-6.7,13.4-11c2.3-2.4,4.2-5.1,5.9-8c1.5-2.6,2.4-5.6,2.5-8.7c0-8.7-6.7-15-13.7-15v1.9  c3.1,0.1,6,1.4,8.1,3.6c2.4,2.5,3.7,5.9,3.7,9.4c-0.2,3.2-1.2,6.3-2.9,8.9c-3,4.6-6.6,8.7-10.9,12.2c-1.8,1.5-3.6,2.9-5.5,4.1  c-1.2,0.8-2.4,1.5-3.7,2l0,0h-0.2l0,0h-0.1l0,0l0,0l0,0v0.9l0.1-0.9h-0.3l0.1,0.9v-0.9l0,0h-0.2l0,0h-0.2l0,0  c-0.8-0.3-1.5-0.6-2.2-1c-4.8-2.9-9.2-6.5-13-10.7c-2.2-2.3-4.1-4.9-5.6-7.7c-1.4-2.4-2.2-5-2.3-7.8c0-3.5,1.3-6.9,3.7-9.4  c2.1-2.3,5-3.6,8.1-3.6c4.9,0,9.2,3.2,10.6,7.9c0.1,0.5,0.7,0.8,1.2,0.6c0.3-0.1,0.5-0.3,0.6-0.6c1.4-4.7,5.8-7.9,10.7-7.9V27.1z"></path>
<path d="M70,48.9c-3.1,0-5.8,2-6.7,4.9c-0.9-2.9-3.6-4.9-6.7-4.9c-3.7,0-7.3,3.3-7.3,8C49.3,64,60.2,72.2,62.9,73H63h0.2l0,0h0.2  h0.2c2.7-0.8,13.6-9,13.6-16.1C77.3,52.2,73.6,48.9,70,48.9z"></path>
<path class="st0" d="M66,39.7c0-3.6-2.9-6.6-6.6-6.6c-0.6,0-1-0.4-1-1s0.4-1,1-1c4.8,0,8.6,3.9,8.6,8.6c0,0.6-0.4,1-1,1  S66,40.3,66,39.7L66,39.7z"></path>
</svg>