<svg xmlns="http://www.w3.org/2000/svg" xmlns:xlink="http://www.w3.org/1999/xlink" id="Layer_1" x="0px" y="0px" viewBox="0 0 100.2 100.2" style="enable-background:new 0 0 100.2 100.2;" xml:space="preserve">
<style type="text/css">
	.st0{fill:#2FB24B;}
</style>
<title>Innovación</title>
<rect x="49.2" y="51.3" class="st0" width="1.9" height="8.4"></rect>
<rect x="47.3" y="48.3" transform="matrix(0.7071 -0.7071 0.7071 0.7071 -21.6847 48.9031)" class="st0" width="1.9" height="4.7"></rect>
<rect x="49.7" y="49.7" transform="matrix(0.7071 -0.7071 0.7071 0.7071 -20.5547 51.6355)" class="st0" width="4.7" height="1.9"></rect>
<path d="M46.9,71v0.9c0,1,0.8,1.8,1.8,1.8h2.8c1,0,1.8-0.8,1.8-1.8V71c2.1-0.1,3.8-1.9,3.8-4h-14C43.1,69.1,44.8,70.9,46.9,71z"></path>
<path d="M50.1,28.4c8.2,0,14.8,6.6,14.8,14.8c0,3.3-1.1,6.5-3.2,9.1c-1.8,2.3-3.5,4.7-5,7.3H43.5c-1.5-2.5-3.2-4.9-5-7.3  c-2.1-2.6-3.2-5.8-3.2-9.1C35.4,35,42,28.4,50.1,28.4 M50.1,26.5c-9.2,0-16.7,7.4-16.7,16.6c0,3.7,1.2,7.4,3.6,10.3  c2,2.5,3.8,5.2,5.5,8h15.3c1.6-2.8,3.5-5.5,5.5-8c5.7-7.2,4.4-17.7-2.8-23.4C57.5,27.8,53.9,26.5,50.1,26.5z"></path>
<polygon points="57.4,63.2 42.9,63.2 42.9,65.1 57.4,65.1 57.4,63.2 "></polygon>
</svg>