<svg width="150" height="68" viewBox="0 0 150 68" fill="none" xmlns="http://www.w3.org/2000/svg">
<g clip-path="url(#clip0_3108_3259)">
<g clip-path="url(#clip1_3108_3259)">
<path d="M56.0026 14.3044V44.4587H48.2764V14.3044H56.0026Z" fill="#010101"/>
<path d="M90.6156 20.2029V44.4587H82.9512V20.2029H90.6156Z" fill="#010101"/>
<path d="M108.708 38.6574V44.4587H105.097C102.266 44.4234 100.067 43.6993 98.5011 42.2865C96.9293 40.8649 96.17 39.3108 96.1964 36.1056L96.2936 26.0836H93V20.2028H96.3465L96.4084 14.3044H103.834L103.781 20.194H108.708V25.9865H103.728L103.622 36.0084C103.542 36.7247 103.745 37.4439 104.188 38.0128C104.747 38.448 105.45 38.656 106.157 38.5956L108.708 38.6574Z" fill="#010101"/>
<path d="M135.693 20.2206L135.454 44.4853H128.037V39.9202C127.335 41.3189 126.244 42.4843 124.894 43.2756C123.436 44.1176 121.773 44.5366 120.09 44.4853C118.85 44.5273 117.616 44.2942 116.478 43.8025C115.339 43.3109 114.323 42.5731 113.503 41.642C111.878 39.7701 111.092 37.227 111.119 33.9688V20.2029H118.651L118.518 33.1123C118.42 34.511 118.866 35.8937 119.763 36.971C120.714 37.8819 121.979 38.3905 123.295 38.3905C124.612 38.3905 125.877 37.8819 126.827 36.971C127.77 35.8308 128.249 34.3777 128.169 32.9004L128.293 20.1941L135.693 20.2206Z" fill="#010101"/>
<path d="M86.7834 18.1986C88.8998 18.1986 90.6156 16.4828 90.6156 14.3664C90.6156 12.2499 88.8998 10.5342 86.7834 10.5342C84.6669 10.5342 82.9512 12.2499 82.9512 14.3664C82.9512 16.4828 84.6669 18.1986 86.7834 18.1986Z" fill="#010101"/>
<path d="M72.1703 44.4675L65.3448 34.8076V44.4675H58.3691V14.3044H65.3448V30.8518L72.2586 20.2028H80.55L71.1902 33.0946L80.5676 44.4675H72.1703Z" fill="#2AB34B"/>
<path d="M63.2785 46.4631V53.1474H62.3955V50.207H59.2079V53.1474H58.3867V46.4631H59.2079V49.536H62.4397V46.4631H63.2785Z" fill="#010101"/>
<path d="M67.8429 48.4852C68.1764 48.7249 68.424 49.0654 68.5493 49.4565V48.1938H69.3705V53.1474H68.5493V51.8848C68.4264 52.2747 68.178 52.613 67.8429 52.8472C67.4876 53.0987 67.0593 53.2259 66.6244 53.2092C66.2152 53.2202 65.8113 53.1148 65.4597 52.9054C65.108 52.6959 64.8229 52.391 64.6376 52.026C64.4458 51.5999 64.3467 51.1379 64.3467 50.6706C64.3467 50.2033 64.4458 49.7414 64.6376 49.3152C64.8209 48.951 65.1023 48.6452 65.45 48.4322C65.8059 48.224 66.2121 48.1172 66.6244 48.1232C67.0588 48.1104 67.4859 48.2373 67.8429 48.4852ZM65.6443 49.3682C65.3507 49.7473 65.1914 50.2132 65.1914 50.6927C65.1914 51.1722 65.3507 51.6381 65.6443 52.0172C65.8009 52.1775 65.9896 52.3028 66.1981 52.385C66.4066 52.4672 66.6301 52.5043 66.854 52.494C67.1629 52.5023 67.4682 52.426 67.7369 52.2733C67.9941 52.1236 68.2026 51.9028 68.3374 51.6375C68.4908 51.3436 68.5668 51.0154 68.5581 50.6839C68.5656 50.3497 68.4897 50.0189 68.3374 49.7214C68.2026 49.4561 67.9941 49.2353 67.7369 49.0857C67.467 48.9362 67.1625 48.8601 66.854 48.8649C66.6299 48.8529 66.4059 48.8893 66.1972 48.9715C65.9884 49.0538 65.7998 49.1801 65.6443 49.3417V49.3682Z" fill="#010101"/>
<path d="M71.1545 52.4499H73.8035V53.1474H70.2715V52.4852L72.7968 48.8826H70.3245V48.1938H73.724V48.8561L71.1545 52.4499Z" fill="#010101"/>
<path d="M75.5253 46.4631V53.1474H74.7041V46.4631H75.5253Z" fill="#010101"/>
<path d="M80.3552 48.4321C80.7293 48.6341 81.0362 48.941 81.2382 49.3151C81.4474 49.7363 81.5563 50.2002 81.5563 50.6705C81.5563 51.1408 81.4474 51.6047 81.2382 52.0259C81.0375 52.401 80.7303 52.7082 80.3552 52.9089C79.9625 53.1214 79.5212 53.2279 79.0749 53.218C78.6312 53.2289 78.1925 53.1222 77.8034 52.9089C77.4293 52.7069 77.1223 52.4 76.9204 52.0259C76.7057 51.6063 76.5938 51.1418 76.5938 50.6705C76.5938 50.1992 76.7057 49.7347 76.9204 49.3151C77.1232 48.9416 77.4299 48.6349 77.8034 48.4321C78.1947 48.2244 78.6319 48.1181 79.0749 48.1231C79.5209 48.1167 79.9613 48.223 80.3552 48.4321ZM78.2625 49.0502C78.0042 49.1894 77.7924 49.4012 77.6532 49.6595C77.502 49.9751 77.4236 50.3206 77.4236 50.6705C77.4236 51.0205 77.502 51.3659 77.6532 51.6815C77.7924 51.9398 78.0042 52.1516 78.2625 52.2908C78.5157 52.4188 78.7955 52.4856 79.0793 52.4856C79.363 52.4856 79.6428 52.4188 79.8961 52.2908C80.1517 52.1511 80.3605 51.9392 80.4965 51.6815C80.6477 51.3659 80.7262 51.0205 80.7262 50.6705C80.7262 50.3206 80.6477 49.9751 80.4965 49.6595C80.3605 49.4018 80.1517 49.1899 79.8961 49.0502C79.6439 48.9187 79.3637 48.85 79.0793 48.85C78.7949 48.85 78.5147 48.9187 78.2625 49.0502Z" fill="#010101"/>
<path d="M88.1349 48.4852C88.4684 48.7249 88.716 49.0654 88.8413 49.4565V48.1938H89.6625V53.1474H88.8413V51.8848C88.7184 52.2747 88.47 52.613 88.1349 52.8472C87.7796 53.0987 87.3513 53.2259 86.9164 53.2092C86.5072 53.2202 86.1033 53.1148 85.7517 52.9054C85.4 52.6959 85.1149 52.391 84.9296 52.026C84.7378 51.5999 84.6387 51.1379 84.6387 50.6706C84.6387 50.2033 84.7378 49.7414 84.9296 49.3152C85.1129 48.951 85.3943 48.6452 85.742 48.4322C86.0979 48.224 86.5041 48.1172 86.9164 48.1232C87.3508 48.1104 87.7779 48.2373 88.1349 48.4852ZM85.9362 49.3682C85.6427 49.7473 85.4834 50.2132 85.4834 50.6927C85.4834 51.1722 85.6427 51.6381 85.9362 52.0172C86.0929 52.1775 86.2816 52.3028 86.4901 52.385C86.6986 52.4672 86.9221 52.5043 87.146 52.494C87.4549 52.5023 87.7602 52.426 88.0289 52.2733C88.2861 52.1236 88.4946 51.9028 88.6294 51.6375C88.7828 51.3436 88.8588 51.0154 88.8501 50.6839C88.8576 50.3497 88.7817 50.0189 88.6294 49.7214C88.4946 49.4561 88.2861 49.2353 88.0289 49.0857C87.759 48.9362 87.4545 48.8601 87.146 48.8649C86.9219 48.8529 86.6979 48.8893 86.4892 48.9715C86.2804 49.0538 86.0918 49.1801 85.9362 49.3417V49.3682Z" fill="#010101"/>
<path d="M94.0243 46.4631V53.1474H93.2031V46.4631H94.0243Z" fill="#010101"/>
<path d="M98.8982 48.4321C99.2696 48.6377 99.5756 48.9437 99.7812 49.3151C99.9904 49.7363 100.099 50.2002 100.099 50.6705C100.099 51.1408 99.9904 51.6047 99.7812 52.0259C99.5768 52.3982 99.2705 52.7045 98.8982 52.9089C98.509 53.1222 98.0703 53.2289 97.6267 53.218C97.1803 53.2279 96.739 53.1214 96.3463 52.9089C95.974 52.7045 95.6677 52.3982 95.4633 52.0259C95.2487 51.6063 95.1367 51.1418 95.1367 50.6705C95.1367 50.1992 95.2487 49.7347 95.4633 49.3151C95.6689 48.9437 95.9749 48.6377 96.3463 48.4321C96.7403 48.223 97.1807 48.1167 97.6267 48.1231C98.0697 48.1181 98.5069 48.2244 98.8982 48.4321ZM96.8055 49.0502C96.5498 49.1899 96.341 49.4018 96.205 49.6595C96.0538 49.9751 95.9754 50.3206 95.9754 50.6705C95.9754 51.0205 96.0538 51.3659 96.205 51.6815C96.341 51.9392 96.5498 52.1511 96.8055 52.2908C97.0587 52.4188 97.3385 52.4856 97.6222 52.4856C97.906 52.4856 98.1858 52.4188 98.439 52.2908C98.6973 52.1516 98.9091 51.9398 99.0483 51.6815C99.1995 51.3659 99.278 51.0205 99.278 50.6705C99.278 50.3206 99.1995 49.9751 99.0483 49.6595C98.9091 49.4012 98.6973 49.1894 98.439 49.0502C98.1869 48.9187 97.9067 48.85 97.6222 48.85C97.3378 48.85 97.0576 48.9187 96.8055 49.0502Z" fill="#010101"/>
<path d="M106.633 48.4852C106.964 48.7253 107.209 49.066 107.331 49.4565V48.1938H108.152V53.2268C108.159 53.65 108.062 54.0684 107.869 54.4454C107.681 54.7952 107.396 55.0834 107.048 55.2754C106.676 55.4837 106.255 55.5875 105.829 55.5756C105.246 55.5981 104.672 55.4274 104.196 55.09C103.777 54.771 103.491 54.3088 103.392 53.792H104.196C104.284 54.1061 104.477 54.3805 104.743 54.569C105.05 54.7679 105.411 54.8666 105.776 54.8516C105.981 54.858 106.184 54.8238 106.375 54.7511C106.566 54.6783 106.741 54.5684 106.889 54.4277C107.039 54.2674 107.155 54.0783 107.229 53.8718C107.303 53.6653 107.335 53.4459 107.322 53.2268V51.8847C107.202 52.274 106.957 52.6125 106.624 52.8472C106.266 53.0987 105.834 53.2258 105.397 53.2092C104.984 53.218 104.577 53.1109 104.222 52.9001C103.876 52.6877 103.598 52.3816 103.419 52.0171C103.227 51.591 103.128 51.129 103.128 50.6617C103.128 50.1944 103.227 49.7325 103.419 49.3063C103.599 48.9427 103.877 48.6369 104.222 48.4234C104.579 48.2164 104.985 48.1096 105.397 48.1143C105.838 48.1021 106.271 48.2322 106.633 48.4852ZM104.426 49.3682C104.138 49.7497 103.982 50.2147 103.982 50.6926C103.982 51.1706 104.138 51.6356 104.426 52.0171C104.584 52.1767 104.775 52.3016 104.985 52.3836C105.194 52.4657 105.419 52.5033 105.644 52.494C105.953 52.5022 106.258 52.4259 106.527 52.2732C106.782 52.1209 106.99 51.9008 107.127 51.6375C107.274 51.3413 107.347 51.0141 107.339 50.6838C107.346 50.3508 107.273 50.021 107.127 49.7214C106.99 49.458 106.782 49.2379 106.527 49.0856C106.257 48.9361 105.953 48.86 105.644 48.8649C105.419 48.8539 105.194 48.8907 104.984 48.9728C104.774 49.055 104.583 49.1807 104.426 49.3417V49.3682Z" fill="#010101"/>
<path d="M110.995 48.397C111.334 48.1967 111.723 48.0958 112.117 48.1056V48.9886H111.869C111.46 48.9707 111.058 49.0956 110.73 49.3418C110.571 49.4899 110.448 49.6731 110.371 49.877C110.294 50.0808 110.266 50.2996 110.289 50.5162V53.1652H109.494V48.1939H110.315V49.1917C110.457 48.8643 110.694 48.5872 110.995 48.397Z" fill="#010101"/>
<path d="M116.188 48.4852C116.519 48.7254 116.763 49.066 116.885 49.4565V48.1938H117.706V53.1474H116.885V51.8847C116.766 52.274 116.52 52.6126 116.188 52.8472C115.829 53.0987 115.398 53.2259 114.96 53.2092C114.548 53.218 114.141 53.1109 113.786 52.9002C113.438 52.6905 113.158 52.3836 112.982 52.0172C112.791 51.591 112.691 51.1291 112.691 50.6618C112.691 50.1945 112.791 49.7325 112.982 49.3064C113.16 48.9408 113.439 48.6342 113.786 48.4234C114.142 48.2164 114.548 48.1096 114.96 48.1143C115.398 48.1041 115.828 48.234 116.188 48.4852ZM113.98 49.3682C113.692 49.7497 113.536 50.2147 113.536 50.6927C113.536 51.1707 113.692 51.6356 113.98 52.0172C114.139 52.1768 114.33 52.3016 114.539 52.3837C114.749 52.4658 114.974 52.5033 115.199 52.494C115.508 52.5023 115.813 52.4259 116.082 52.2732C116.337 52.1209 116.545 51.9008 116.682 51.6375C116.829 51.3413 116.901 51.0142 116.894 50.6838C116.9 50.3508 116.828 50.021 116.682 49.7214C116.545 49.458 116.337 49.238 116.082 49.0856C115.812 48.9362 115.507 48.86 115.199 48.8649C114.973 48.8539 114.748 48.8907 114.538 48.9729C114.328 49.055 114.138 49.1807 113.98 49.3417V49.3682Z" fill="#010101"/>
<path d="M123.03 48.6618C123.41 49.1078 123.6 49.6846 123.56 50.2689V53.1474H122.739V50.3307C122.764 49.9162 122.628 49.508 122.359 49.1916C122.224 49.0571 122.063 48.9523 121.885 48.8839C121.707 48.8154 121.517 48.7849 121.326 48.7943C121.125 48.786 120.925 48.8211 120.739 48.8973C120.553 48.9735 120.386 49.089 120.249 49.2358C119.952 49.5902 119.807 50.0466 119.843 50.5073V53.1563H119.013V48.1939H119.843V49.3594C119.96 48.9975 120.196 48.6862 120.514 48.4764C120.843 48.2578 121.231 48.1439 121.626 48.1497C121.883 48.1341 122.14 48.1715 122.382 48.2596C122.623 48.3477 122.844 48.4846 123.03 48.6618Z" fill="#010101"/>
<path d="M128.081 48.4852C128.412 48.7254 128.657 49.066 128.779 49.4565V46.4631H129.6V53.1474H128.779V51.8847C128.659 52.274 128.414 52.6126 128.081 52.8472C127.723 53.0987 127.292 53.2259 126.854 53.2092C126.441 53.2194 126.034 53.1123 125.679 52.9002C125.331 52.6905 125.052 52.3836 124.876 52.0172C124.678 51.5926 124.576 51.13 124.576 50.6618C124.576 50.1935 124.678 49.7309 124.876 49.3064C125.053 48.9408 125.332 48.6342 125.679 48.4234C126.035 48.2152 126.442 48.1083 126.854 48.1143C127.292 48.1041 127.722 48.234 128.081 48.4852ZM125.874 49.3682C125.586 49.7497 125.43 50.2147 125.43 50.6927C125.43 51.1707 125.586 51.6356 125.874 52.0172C126.033 52.1768 126.223 52.3016 126.433 52.3837C126.643 52.4658 126.867 52.5033 127.092 52.494C127.402 52.5051 127.708 52.4285 127.975 52.2732C128.232 52.1236 128.441 51.9028 128.576 51.6375C128.729 51.3435 128.805 51.0153 128.796 50.6838C128.804 50.3497 128.728 50.0189 128.576 49.7214C128.441 49.4561 128.232 49.2353 127.975 49.0856C127.705 48.9362 127.401 48.86 127.092 48.8649C126.867 48.8539 126.642 48.8907 126.432 48.9729C126.222 49.055 126.032 49.1807 125.874 49.3417V49.3682Z" fill="#010101"/>
<path d="M135.436 50.8428H131.472C131.463 51.0757 131.501 51.308 131.583 51.5262C131.665 51.7445 131.789 51.9443 131.949 52.1143C132.241 52.3619 132.605 52.5078 132.987 52.5301C133.37 52.5524 133.749 52.4499 134.068 52.238C134.329 52.0434 134.507 51.7558 134.562 51.4344H135.445C135.382 51.7725 135.237 52.09 135.023 52.3593C134.809 52.6287 134.533 52.8416 134.218 52.9797C133.864 53.1324 133.482 53.2076 133.096 53.2004C132.655 53.2127 132.219 53.106 131.834 52.8914C131.459 52.6898 131.152 52.3828 130.951 52.0084C130.747 51.5855 130.642 51.1223 130.642 50.653C130.642 50.1837 130.747 49.7204 130.951 49.2976C131.153 48.9238 131.46 48.617 131.834 48.4146C132.224 48.2118 132.657 48.106 133.096 48.106C133.536 48.106 133.969 48.2118 134.359 48.4146C134.703 48.608 134.987 48.892 135.18 49.2358C135.369 49.5857 135.466 49.9774 135.463 50.3748C135.466 50.5313 135.457 50.6877 135.436 50.8428ZM134.456 49.5272C134.331 49.2888 134.133 49.0968 133.891 48.9797C133.648 48.8552 133.378 48.7915 133.105 48.7943C132.685 48.7829 132.277 48.9348 131.966 49.2181C131.805 49.3785 131.678 49.57 131.593 49.781C131.508 49.992 131.467 50.2181 131.472 50.4455H134.642C134.669 50.1279 134.604 49.8093 134.456 49.5272Z" fill="#010101"/>
<path d="M27.9228 33.0681H34.2539L30.0243 20.1764L22.0774 44.4852H14.2188L25.6977 14.3044H34.4393L43.7196 38.7899H26.0597L27.9228 33.0681Z" fill="#010101"/>
<path d="M44.4798 40.7944L45.8838 44.4853H38.034L36.8154 40.7944H44.4798Z" fill="#2FB24B"/>
</g>
</g>
<defs>
<clipPath id="clip0_3108_3259">
<rect width="150" height="67.24" fill="white"/>
</clipPath>
<clipPath id="clip1_3108_3259">
<rect width="150" height="67.24" fill="white"/>
</clipPath>
</defs>
</svg>
