<svg width="252" height="113" viewBox="0 0 252 113" fill="none" xmlns="http://www.w3.org/2000/svg">
<path d="M93.7738 23.9537V74.4484H80.8359V23.9537H93.7738Z" fill="white"/>
<path d="M151.737 33.8307V74.4484H138.902V33.8307H151.737Z" fill="white"/>
<path d="M182.033 64.7339V74.4484H175.986C171.244 74.3893 167.562 73.1768 164.94 70.8111C162.308 68.4305 161.037 65.8281 161.081 60.4607L161.244 43.6784H155.729V33.8308H161.332L161.436 23.9537H173.871L173.782 33.8161H182.033V43.5158H173.694L173.516 60.2981C173.382 61.4975 173.722 62.7019 174.463 63.6545C175.4 64.3832 176.577 64.7316 177.76 64.6304L182.033 64.7339Z" fill="white"/>
<path d="M227.219 33.8603L226.82 74.4927H214.4V66.8483C213.225 69.1905 211.397 71.1421 209.136 72.467C206.695 73.8771 203.91 74.5786 201.092 74.4927C199.016 74.5632 196.95 74.1727 195.043 73.3495C193.136 72.5263 191.434 71.2907 190.062 69.7316C187.341 66.5969 186.025 62.3385 186.069 56.8824V33.8308H198.682L198.46 55.4481C198.295 57.7904 199.042 60.1058 200.545 61.9097C202.136 63.4351 204.255 64.2868 206.46 64.2868C208.664 64.2868 210.783 63.4351 212.374 61.9097C213.953 60.0005 214.755 57.5671 214.622 55.0933L214.829 33.816L227.219 33.8603Z" fill="white"/>
<path d="M145.32 30.4743C148.864 30.4743 151.737 27.6012 151.737 24.0571C151.737 20.513 148.864 17.6399 145.32 17.6399C141.775 17.6399 138.902 20.513 138.902 24.0571C138.902 27.6012 141.775 30.4743 145.32 30.4743Z" fill="white"/>
<path d="M120.847 74.4632L109.417 58.2872V74.4632H97.7363V23.9537H109.417V51.663L120.995 33.8308H134.879L119.206 55.4186L134.909 74.4632H120.847Z" fill="#2AB34B"/>
<path d="M105.957 77.8049V88.998H104.479V84.0742H99.1407V88.998H97.7656V77.8049H99.1407V82.9505H104.552V77.8049H105.957Z" fill="white"/>
<path d="M113.603 81.1909C114.161 81.5923 114.576 82.1625 114.786 82.8174V80.703H116.161V88.998H114.786V86.8836C114.58 87.5365 114.164 88.1031 113.603 88.4953C113.008 88.9164 112.291 89.1295 111.562 89.1015C110.877 89.1198 110.201 88.9434 109.612 88.5926C109.023 88.2419 108.546 87.7313 108.235 87.1202C107.914 86.4066 107.748 85.633 107.748 84.8505C107.748 84.068 107.914 83.2944 108.235 82.5808C108.542 81.9709 109.013 81.4588 109.596 81.1022C110.192 80.7535 110.872 80.5746 111.562 80.5847C112.29 80.5632 113.005 80.7757 113.603 81.1909ZM109.921 82.6695C109.429 83.3044 109.163 84.0845 109.163 84.8874C109.163 85.6904 109.429 86.4705 109.921 87.1054C110.183 87.3737 110.499 87.5836 110.848 87.7212C111.197 87.8588 111.572 87.9211 111.947 87.9038C112.464 87.9177 112.975 87.7899 113.425 87.5342C113.856 87.2835 114.205 86.9138 114.431 86.4696C114.688 85.9773 114.815 85.4277 114.8 84.8727C114.813 84.3131 114.686 83.7592 114.431 83.261C114.205 82.8167 113.856 82.447 113.425 82.1964C112.973 81.9461 112.463 81.8186 111.947 81.8267C111.571 81.8066 111.196 81.8675 110.847 82.0053C110.497 82.143 110.181 82.3545 109.921 82.6252V82.6695Z" fill="white"/>
<path d="M119.147 87.8299H123.582V88.998H117.668V87.889L121.897 81.8563H117.757V80.7029H123.449V81.8119L119.147 87.8299Z" fill="white"/>
<path d="M126.467 77.8049V88.998H125.092V77.8049H126.467Z" fill="white"/>
<path d="M134.555 81.1021C135.181 81.4404 135.695 81.9543 136.033 82.5808C136.384 83.2861 136.566 84.0629 136.566 84.8504C136.566 85.638 136.384 86.4148 136.033 87.1201C135.697 87.7481 135.183 88.2626 134.555 88.5987C133.897 88.9546 133.158 89.1329 132.411 89.1162C131.668 89.1345 130.933 88.956 130.281 88.5987C129.655 88.2605 129.141 87.7466 128.803 87.1201C128.443 86.4175 128.256 85.6396 128.256 84.8504C128.256 84.0612 128.443 83.2833 128.803 82.5808C129.142 81.9553 129.656 81.4417 130.281 81.1021C130.937 80.7543 131.669 80.5764 132.411 80.5846C133.157 80.5739 133.895 80.7519 134.555 81.1021ZM131.05 82.1372C130.618 82.3702 130.263 82.7249 130.03 83.1574C129.777 83.6859 129.645 84.2644 129.645 84.8504C129.645 85.4364 129.777 86.015 130.03 86.5435C130.263 86.9759 130.618 87.3306 131.05 87.5637C131.474 87.7781 131.943 87.8898 132.418 87.8898C132.893 87.8898 133.362 87.7781 133.786 87.5637C134.214 87.3297 134.563 86.9749 134.791 86.5435C135.044 86.015 135.176 85.4364 135.176 84.8504C135.176 84.2644 135.044 83.6859 134.791 83.1574C134.563 82.726 134.214 82.3711 133.786 82.1372C133.363 81.9169 132.894 81.8019 132.418 81.8019C131.942 81.8019 131.473 81.9169 131.05 82.1372Z" fill="white"/>
<path d="M147.581 81.1909C148.14 81.5923 148.554 82.1625 148.764 82.8174V80.703H150.139V88.998H148.764V86.8836C148.558 87.5365 148.142 88.1031 147.581 88.4953C146.986 88.9164 146.269 89.1295 145.541 89.1015C144.856 89.1198 144.179 88.9434 143.59 88.5926C143.001 88.2419 142.524 87.7313 142.214 87.1202C141.893 86.4066 141.727 85.633 141.727 84.8505C141.727 84.068 141.893 83.2944 142.214 82.5808C142.521 81.9709 142.992 81.4588 143.574 81.1022C144.17 80.7535 144.85 80.5746 145.541 80.5847C146.268 80.5632 146.983 80.7757 147.581 81.1909ZM143.899 82.6695C143.408 83.3044 143.141 84.0845 143.141 84.8874C143.141 85.6904 143.408 86.4705 143.899 87.1054C144.162 87.3737 144.478 87.5836 144.827 87.7212C145.176 87.8588 145.55 87.9211 145.925 87.9038C146.442 87.9177 146.954 87.7899 147.404 87.5342C147.834 87.2835 148.184 86.9138 148.409 86.4696C148.666 85.9773 148.793 85.4277 148.779 84.8727C148.791 84.3131 148.664 83.7592 148.409 83.261C148.184 82.8167 147.834 82.447 147.404 82.1964C146.952 81.9461 146.442 81.8186 145.925 81.8267C145.55 81.8066 145.175 81.8675 144.825 82.0053C144.476 82.143 144.16 82.3545 143.899 82.6252V82.6695Z" fill="white"/>
<path d="M157.442 77.8049V88.998H156.066V77.8049H157.442Z" fill="white"/>
<path d="M165.605 81.1021C166.227 81.4464 166.74 81.9588 167.084 82.5808C167.434 83.2861 167.617 84.0629 167.617 84.8504C167.617 85.638 167.434 86.4148 167.084 87.1201C166.742 87.7435 166.229 88.2564 165.605 88.5987C164.954 88.956 164.219 89.1345 163.476 89.1162C162.729 89.1329 161.99 88.9546 161.332 88.5987C160.709 88.2564 160.196 87.7435 159.854 87.1201C159.494 86.4175 159.307 85.6396 159.307 84.8504C159.307 84.0612 159.494 83.2833 159.854 82.5808C160.198 81.9588 160.71 81.4464 161.332 81.1021C161.992 80.7519 162.729 80.5739 163.476 80.5846C164.218 80.5764 164.95 80.7543 165.605 81.1021ZM162.101 82.1372C161.673 82.3711 161.323 82.726 161.096 83.1574C160.842 83.6859 160.711 84.2644 160.711 84.8504C160.711 85.4364 160.842 86.015 161.096 86.5435C161.323 86.9749 161.673 87.3297 162.101 87.5637C162.525 87.7781 162.994 87.8898 163.469 87.8898C163.944 87.8898 164.412 87.7781 164.837 87.5637C165.269 87.3306 165.624 86.9759 165.857 86.5435C166.11 86.015 166.241 85.4364 166.241 84.8504C166.241 84.2644 166.11 83.6859 165.857 83.1574C165.624 82.7249 165.269 82.3702 164.837 82.1372C164.414 81.9169 163.945 81.8019 163.469 81.8019C162.993 81.8019 162.523 81.9169 162.101 82.1372Z" fill="white"/>
<path d="M178.557 81.1909C179.111 81.593 179.521 82.1635 179.725 82.8173V80.7029H181.1V89.131C181.112 89.8397 180.949 90.5403 180.627 91.1715C180.312 91.7574 179.834 92.24 179.252 92.5614C178.63 92.9103 177.924 93.084 177.211 93.0642C176.235 93.1018 175.273 92.8159 174.476 92.2509C173.775 91.7168 173.296 90.9428 173.13 90.0774H174.476C174.623 90.6034 174.947 91.0628 175.393 91.3785C175.906 91.7115 176.511 91.8769 177.123 91.8517C177.465 91.8625 177.805 91.8053 178.125 91.6835C178.445 91.5616 178.738 91.3776 178.986 91.142C179.237 90.8735 179.43 90.5568 179.555 90.2111C179.68 89.8653 179.732 89.4979 179.71 89.131V86.8835C179.51 87.5354 179.099 88.1023 178.542 88.4952C177.942 88.9164 177.22 89.1294 176.487 89.1015C175.796 89.1162 175.115 88.9369 174.52 88.584C173.941 88.2283 173.474 87.7156 173.175 87.1053C172.854 86.3918 172.687 85.6182 172.688 84.8357C172.687 84.0532 172.854 83.2796 173.175 82.566C173.476 81.9571 173.942 81.4449 174.52 81.0874C175.117 80.7408 175.797 80.562 176.487 80.5699C177.226 80.5495 177.951 80.7672 178.557 81.1909ZM174.86 82.6695C174.378 83.3084 174.117 84.087 174.117 84.8874C174.117 85.6878 174.378 86.4665 174.86 87.1053C175.127 87.3726 175.445 87.5816 175.797 87.7191C176.148 87.8565 176.524 87.9194 176.901 87.9038C177.418 87.9177 177.929 87.7898 178.379 87.5341C178.807 87.279 179.155 86.9105 179.385 86.4695C179.63 85.9736 179.752 85.4258 179.74 84.8726C179.75 84.3149 179.629 83.7626 179.385 83.2609C179.155 82.82 178.807 82.4514 178.379 82.1963C177.927 81.946 177.418 81.8186 176.901 81.8267C176.524 81.8083 176.147 81.8699 175.795 82.0075C175.443 82.1451 175.125 82.3556 174.86 82.6251V82.6695Z" fill="white"/>
<path d="M185.861 81.0431C186.429 80.7077 187.08 80.5386 187.739 80.5551V82.0337H187.325C186.64 82.0038 185.966 82.2128 185.418 82.6252C185.15 82.8732 184.944 83.18 184.816 83.5213C184.688 83.8626 184.641 84.2291 184.678 84.5917V89.0276H183.348V80.703H184.723V82.3738C184.959 81.8255 185.356 81.3615 185.861 81.0431Z" fill="white"/>
<path d="M194.558 81.1909C195.112 81.593 195.522 82.1635 195.726 82.8173V80.7029H197.101V88.998H195.726V86.8835C195.526 87.5354 195.115 88.1023 194.558 88.4952C193.957 88.9165 193.235 89.1294 192.502 89.1015C191.811 89.1162 191.13 88.9369 190.536 88.584C189.953 88.2329 189.485 87.7189 189.19 87.1053C188.869 86.3918 188.703 85.6182 188.703 84.8357C188.703 84.0532 188.869 83.2796 189.19 82.566C189.487 81.9539 189.954 81.4405 190.536 81.0874C191.133 80.7408 191.812 80.562 192.502 80.5699C193.236 80.5527 193.956 80.7702 194.558 81.1909ZM190.861 82.6695C190.379 83.3084 190.118 84.087 190.118 84.8874C190.118 85.6878 190.379 86.4665 190.861 87.1053C191.127 87.3726 191.446 87.5816 191.798 87.7191C192.149 87.8565 192.525 87.9194 192.902 87.9038C193.419 87.9177 193.93 87.7898 194.38 87.5341C194.807 87.279 195.155 86.9105 195.386 86.4695C195.631 85.9736 195.753 85.4258 195.741 84.8726C195.751 84.3149 195.63 83.7626 195.386 83.2609C195.155 82.82 194.807 82.4514 194.38 82.1963C193.928 81.946 193.418 81.8186 192.902 81.8267C192.524 81.8083 192.148 81.8699 191.796 82.0075C191.444 82.1451 191.126 82.3556 190.861 82.6251V82.6695Z" fill="white"/>
<path d="M206.015 81.4866C206.651 82.2334 206.969 83.1993 206.902 84.1777V88.998H205.527V84.2812C205.569 83.5871 205.341 82.9036 204.891 82.3738C204.665 82.1485 204.394 81.973 204.096 81.8584C203.798 81.7438 203.48 81.6927 203.161 81.7084C202.825 81.6945 202.49 81.7533 202.178 81.8809C201.867 82.0085 201.587 82.2019 201.357 82.4477C200.861 83.0411 200.616 83.8056 200.677 84.5769V89.0128H199.287V80.703H200.677V82.6547C200.873 82.0487 201.269 81.5273 201.801 81.1761C202.352 80.8101 203.002 80.6193 203.664 80.629C204.094 80.6029 204.524 80.6655 204.929 80.813C205.333 80.9606 205.703 81.1899 206.015 81.4866Z" fill="white"/>
<path d="M214.473 81.1909C215.027 81.5931 215.437 82.1635 215.641 82.8174V77.8049H217.016V88.998H215.641V86.8836C215.441 87.5354 215.03 88.1024 214.473 88.4953C213.872 88.9165 213.151 89.1294 212.418 89.1015C211.726 89.1187 211.044 88.9392 210.451 88.584C209.868 88.2329 209.4 87.7189 209.105 87.1054C208.775 86.3944 208.604 85.6198 208.604 84.8357C208.604 84.0516 208.775 83.277 209.105 82.566C209.402 81.9539 209.87 81.4405 210.451 81.0874C211.047 80.7388 211.727 80.5598 212.418 80.5699C213.151 80.5527 213.871 80.7703 214.473 81.1909ZM210.776 82.6695C210.294 83.3084 210.033 84.087 210.033 84.8874C210.033 85.6879 210.294 86.4665 210.776 87.1054C211.043 87.3726 211.361 87.5816 211.713 87.7191C212.064 87.8566 212.44 87.9195 212.817 87.9038C213.335 87.9224 213.847 87.7942 214.295 87.5342C214.726 87.2835 215.075 86.9138 215.301 86.4696C215.558 85.9773 215.685 85.4277 215.671 84.8727C215.683 84.3131 215.556 83.7592 215.301 83.261C215.075 82.8167 214.726 82.447 214.295 82.1964C213.843 81.9461 213.334 81.8186 212.817 81.8267C212.44 81.8083 212.063 81.8699 211.711 82.0075C211.359 82.1452 211.041 82.3556 210.776 82.6252V82.6695Z" fill="white"/>
<path d="M226.789 85.1387H220.15C220.136 85.5288 220.199 85.9177 220.336 86.2832C220.473 86.6486 220.681 86.9833 220.948 87.2679C221.437 87.6825 222.048 87.9268 222.688 87.9642C223.328 88.0015 223.963 87.8298 224.497 87.475C224.935 87.1492 225.232 86.6675 225.325 86.1294H226.804C226.698 86.6955 226.455 87.2272 226.097 87.6782C225.739 88.1292 225.276 88.4858 224.748 88.717C224.156 88.9727 223.516 89.0987 222.87 89.0866C222.132 89.1073 221.402 88.9285 220.756 88.5691C220.129 88.2316 219.615 87.7175 219.277 87.0905C218.937 86.3824 218.76 85.6067 218.76 84.8208C218.76 84.035 218.937 83.2593 219.277 82.5512C219.616 81.9252 220.13 81.4115 220.756 81.0725C221.409 80.733 222.134 80.5557 222.87 80.5557C223.607 80.5557 224.332 80.733 224.985 81.0725C225.561 81.3964 226.036 81.8721 226.36 82.4477C226.675 83.0336 226.838 83.6896 226.833 84.3551C226.838 84.617 226.823 84.879 226.789 85.1387ZM225.148 82.9356C224.939 82.5364 224.607 82.215 224.201 82.0189C223.794 81.8103 223.343 81.7038 222.885 81.7083C222.182 81.6893 221.498 81.9437 220.978 82.4181C220.708 82.6866 220.495 83.0073 220.353 83.3606C220.21 83.714 220.141 84.0925 220.15 84.4734H225.458C225.504 83.9416 225.396 83.408 225.148 82.9356Z" fill="white"/>
<path d="M46.7528 55.3743H57.3545L50.2719 33.7865L36.9644 74.4928H23.8047L43.0267 23.9537H57.665L73.2053 64.9557H43.6329L46.7528 55.3743Z" fill="white"/>
<path d="M74.477 68.3121L76.828 74.4927H63.6831L61.6426 68.3121H74.477Z" fill="#2AB34B"/>
</svg>
